<svg xmlns="http://www.w3.org/2000/svg" width="204" height="54" fill="none" viewBox="0 0 204 54">
    <path fill="#fff" fill-rule="evenodd" d="M72.781 10.745h-1.148c-.08 0-.12.04-.12.119v.99c0 .08.04.119.12.119h1.148c.08 0 .12-.04.12-.12v-.99c0-.078-.04-.118-.12-.118zM87.867 15.062c-.159.237-.475.356-.871.356-.357 0-.634-.119-.831-.356-.199-.199-.278-.594-.278-1.07 0-.475.08-.831.278-1.069.197-.237.474-.356.83-.356.793 0 1.15.475 1.15 1.425 0 .476-.08.832-.278 1.07zm1.425-2.297c-.118-.317-.316-.595-.514-.792-.238-.198-.476-.357-.792-.475-.278-.08-.634-.12-.99-.12-.967 0-1.863.4-2.218 1.347-.12.317-.198.713-.198 1.149v.356c0 .271-.04.536-.177.776-.135.235-.378.293-.627.293H76.106c-.317 0-.555-.04-.713-.158-.198-.159-.277-.317-.277-.555v-1.9c0-.08-.04-.12-.12-.12h-1.108c-.08 0-.119.04-.119.12v3.524c0 .515-.159.91-.435 1.148-.277.238-.634.357-1.109.357-.158 0-.356-.04-.554-.08-.198-.04-.357-.118-.515-.237-.159-.158-.278-.317-.357-.515-.119-.198-.158-.475-.158-.792 0-.356.04-.673.158-.95.12-.317.238-.555.317-.95l-.95-.357c-.08-.04-.158-.04-.198 0-.198.317-.357.673-.475 1.109-.158.435-.198.871-.198 1.267 0 .475.04.87.198 1.188.157.356.356.634.633.871.238.198.554.396.911.475.356.12.752.159 1.149.159.435 0 .83-.04 1.187-.159.356-.079.673-.277.95-.475.238-.237.436-.515.595-.871.119-.317.198-.713.198-1.148v-.159c0 .035.097.113.123.135.239.218.581.242.89.256.672.031 1.347.01 2.021.007l1.133-.002h4.188c.235 0 .477-.004.711-.043.122-.02.243-.05.359-.092.114-.042.216-.115.317-.182.118-.079.198-.158.277-.277.237.238.474.396.791.515.317.119.674.158 1.07.158s.713-.04 1.03-.158c.276-.08.553-.238.752-.436.238-.198.396-.475.514-.792.119-.317.159-.712.159-1.188 0-.475-.04-.871-.158-1.227zM94.362 8.8h-1.307c-.023 0-.087-.1-.101-.118-.026-.036-.054-.068-.081-.103-.057-.072-.1-.155-.128-.243-.072-.222-.064-.5.105-.677.126-.134.32-.178.499-.153.196.026.498.269.498.269l.436-.317c0-.04-.237-.356-.436-.436-.358-.143-.794-.177-1.147 0-.213.107-.39.232-.52.436-.165.256-.224.564-.154.86.02.085.051.166.077.249.007.023.059.233.081.233h-.514v.559h2.692V8.8z" clip-rule="evenodd"/>
    <path fill="#fff" fill-rule="evenodd" d="M103.391 8.567v6.415c0 .515-.079.91-.316 1.149-.198.237-.555.356-1.07.356h-3.96c-.316 0-.554-.04-.792-.12-.237-.078-.396-.236-.554-.474-.118.198-.277.356-.475.435-.238.12-.515.159-.871.159h-5.109c-.079 0-.119-.04-.119-.12v-.95c0-.079.04-.118.12-.118h2.138V10.23c0-.08.04-.119.118-.119h1.11c.079 0 .118.04.118.12v5.068h1.228c.118 0 .237 0 .316-.04.08-.04.12-.079.16-.158.038-.119.078-.198.078-.356V8.567c0-.08.04-.119.12-.119h1.108c.079 0 .118.04.118.119v6.138c.08.396.396.594.99.594h3.644c.198 0 .356-.04.435-.119.079-.08.119-.238.119-.475V8.567c0-.08.039-.119.119-.119h1.109c.079 0 .118.04.118.119zM110.857 19.99c-.077 0-.116-.04-.116-.117V18.86c0-.081.039-.12.116-.12l1.002-.004c.077 0 .12.039.12.12v1.013c0 .078-.043.116-.12.116l-1.002.004zm-1.547 0c-.077 0-.12-.04-.12-.117V18.86c0-.081.043-.12.12-.12h1.002c.077 0 .12.039.12.12v1.013c0 .077-.043.116-.12.116h-1.002zm-1.57-4.761c0 .297.054.549.167.746.112.201.251.36.429.48.174.116.371.201.596.247.22.046.448.07.676.07l2.371-.004c.46 0 .773-.062.947-.182.17-.124.256-.274.256-.452 0-.12-.066-.236-.198-.356-.131-.116-.298-.24-.499-.372-.205-.127-.421-.266-.649-.417-.232-.15-.449-.321-.65-.514-.201-.19-.368-.403-.499-.642-.131-.24-.197-.519-.197-.832 0-.282.054-.549.166-.796.112-.248.267-.465.472-.654.201-.182.445-.329.731-.437.286-.104.607-.158.963-.158.549 0 .986.084 1.318.255.329.17.608.39.84.665.046.054.035.112-.039.166l-.642.623c-.062.05-.12.046-.166-.012-.167-.162-.345-.29-.534-.383-.193-.089-.425-.135-.703-.135-.271 0-.511.073-.72.22-.212.143-.317.36-.317.643 0 .185.066.359.201.518.136.158.306.309.506.46.206.147.422.302.658.46.232.155.452.32.654.499.201.178.371.371.506.58.136.205.201.445.201.711 0 .236-.042.46-.131.673-.086.213-.224.399-.418.561-.189.159-.433.286-.735.375-.301.089-.665.136-1.086.136l-2.773.003c-1.032 0-1.798-.235-2.305-.707-.503-.472-.754-1.11-.754-1.922 0-.422.066-.847.201-1.273.135-.425.302-.788.499-1.094.043-.073.1-.081.182-.023l.963.375c.038.016.062.039.066.066.003.027-.004.058-.02.089-.128.22-.248.475-.364.77-.112.297-.17.618-.17.974zM120.588 14.46c0 .39-.035.715-.109.97-.069.255-.178.464-.32.619-.144.158-.326.267-.55.332-.22.062-.483.093-.785.093h-2.761c-.081 0-.12-.039-.12-.116v-.932c0-.081.039-.12.12-.12h2.212c.217 0 .387-.015.514-.046.128-.031.224-.085.29-.159.07-.074.113-.17.132-.29.019-.116.031-.263.031-.437v-.789c0-.692-.406-1.036-1.214-1.036h-1.431c-.078 0-.116-.04-.116-.12v-.944c0-.077.038-.116.116-.116h1.906c.634 0 1.141.17 1.516.515.379.34.569.873.569 1.597v.978zM139.071 13.873c-.079.159-.158.278-.238.396-.118.159-.237.278-.356.357-.118.119-.277.237-.396.317-.118-.476-.277-.872-.554-1.268-.237-.356-.554-.633-.911-.87.079-.04.237-.12.475-.16.238-.078.515-.118.832-.118.357 0 .634.08.871.198.238.119.357.357.357.673 0 .159-.04.317-.08.475zm-13.78 1.426h-1.07c-.356 0-.673-.08-.871-.277-.198-.159-.277-.515-.277-.99s.079-.832.277-1.07c.198-.277.475-.395.832-.395.396 0 .673.118.831.356.198.238.278.594.278 1.03v1.346zm31.244-6.85h-1.109c-.079 0-.119.039-.119.118v6.098c0 .238-.04.396-.158.515-.079.08-.198.119-.396.119h-2.218c-.317 0-.554-.04-.752-.198-.159-.119-.238-.277-.238-.515v-2.89c0-.08-.04-.12-.118-.12h-1.11c-.079 0-.118.04-.118.12v2.455c0 .237-.039.435-.039.594 0 .158-.04.277-.119.356-.04.08-.119.119-.238.158-.119.04-.278.04-.436.04-.277 0-.475-.04-.594-.158-.158-.12-.238-.317-.238-.555v-1.94c0-.08-.039-.119-.118-.119h-1.109c-.079 0-.118.04-.118.119v1.505c0 .237 0 .435-.04.594 0 .158-.039.277-.079.356-.04.08-.159.119-.278.158-.079.04-.238.04-.435.04-.317 0-.515-.04-.634-.158-.159-.12-.198-.317-.198-.555v-1.94c0-.08-.039-.119-.119-.119h-1.109c-.079 0-.118.04-.118.119v2.02c0 .158-.04.277-.079.356-.04.119-.08.158-.159.198-.079.079-.198.079-.317.079h-4.118c-.079 0-.159 0-.238-.04.159-.079.317-.198.476-.316.118-.159.277-.317.396-.515.119-.159.198-.357.276-.555.08-.198.12-.435.12-.673 0-.554-.198-.99-.634-1.346-.396-.317-1.07-.475-1.98-.475-.356 0-.673 0-.99.079-.317.04-.594.119-.832.198-.277.079-.475.158-.594.277-.158.119-.237.198-.237.277v.911c.04.04.079.119.158.158l.475.357c.159.119.317.237.436.396.119.119.238.317.356.475.119.198.198.436.278.673-.238.08-.436.08-.594.119h-9.782v-1.307c0-.515-.039-.91-.158-1.227-.119-.317-.277-.594-.515-.792-.198-.198-.475-.357-.752-.476-.317-.079-.634-.118-.99-.118-.317 0-.634.04-.911.118-.317.12-.554.278-.792.476-.238.237-.396.514-.515.831-.159.357-.237.792-.237 1.267 0 .436.078.792.198 1.11.078.316.237.554.436.752.197.198.434.316.752.435.277.08.594.119.99.119h1.188c0 .238-.04.436-.08.594-.039.158-.118.277-.198.356-.079.08-.198.159-.316.198-.159.04-.317.04-.476.04h-1.426c-.039 0-.118.04-.118.119v.95c0 .08.079.119.118.119h1.624c.713 0 1.268-.158 1.624-.515.396-.356.554-.871.554-1.623v-.238h9.702c.238 0 .475-.04.792-.08.277-.078.554-.158.832-.316.198.158.475.238.712.317.278.04.516.079.832.079h4.554c.357 0 .634-.08.872-.158.198-.08.356-.238.474-.476.198.396.595.634 1.149.634h.515c.356 0 .673-.08.871-.158.198-.08.357-.238.475-.476.119.198.238.357.436.476.198.079.435.158.712.158h.516c.356 0 .633-.08.871-.158.198-.08.356-.238.475-.476.118.278.316.436.515.515.238.08.515.119.831.119h2.534c.476 0 .832-.119 1.07-.396.198-.238.316-.594.316-1.109V8.567c0-.08-.039-.119-.118-.119zM159.487 16.35c0 .077-.039.116-.12.116h-1.106c-.082.004-.12-.035-.12-.112v-7.78c0-.082.038-.124.12-.124h1.106c.081 0 .12.038.12.12v7.78zM167.299 14.451c0 .391-.036.716-.109.97-.069.256-.178.465-.321.62-.143.158-.325.267-.549.332-.22.062-.483.093-.785.093h-2.761c-.081 0-.12-.039-.12-.116v-.932c0-.081.039-.12.12-.12h2.212c.217 0 .387-.015.514-.046.128-.031.224-.085.29-.159.07-.073.113-.17.132-.29.019-.116.031-.263.031-.437v-.789c0-.692-.406-1.036-1.214-1.036h-1.432c-.077 0-.116-.039-.116-.12v-.944c0-.077.039-.116.116-.116h1.907c.634 0 1.141.17 1.516.515.379.34.569.874.569 1.597v.978zM192.294 9.16h-.99c-.079 0-.118 0-.118.08v1.03c0 .079.039.118.118.118h.99c.08 0 .119-.039.119-.119V9.24c0-.078-.039-.078-.119-.078zm1.544 0h-.989c-.079 0-.119 0-.119.08v1.03c0 .079.04.118.119.118h.989c.08 0 .12-.039.12-.119V9.24c0-.078-.04-.078-.12-.078zM193.244 11.695v3.287c0 .515-.119.871-.316 1.109-.238.238-.594.356-1.07.356h-4.157c-.357 0-.634-.04-.871-.118-.278-.08-.436-.278-.595-.555-.158.277-.356.436-.633.555-.238.079-.594.118-.95.118h-14.614c-.514 0-.87-.118-1.068-.356-.238-.238-.357-.594-.357-1.109V8.567c0-.08.039-.119.119-.119h1.109c.079 0 .119.04.119.119v6.098c0 .238.078.396.158.515.079.08.237.119.435.119h13.583c.124 0 .254-.011.378-.024.124-.014.25-.046.351-.123.117-.089.187-.229.219-.373.024-.108.03-.22.03-.332 0-.096.013-.187.008-.284-.009-.19-.037-.38-.075-.567-.039-.198-.119-.396-.237-.554-.119-.159-.278-.277-.436-.357-.198-.118-.396-.158-.673-.158-.278 0-.515.08-.713.158-.237.12-.396.238-.594.436-.04.04-.079.04-.158 0l-.634-.634c-.04-.079-.04-.118 0-.158.238-.277.554-.515.871-.713.357-.158.752-.277 1.267-.277.515 0 .951.119 1.307.277.356.159.673.357.871.634.198.277.356.594.476.95.079.357.118.713.118 1.109v.317c0 .198.12.356.278.475.158.119.396.198.712.198h3.802c.198 0 .356-.04.436-.158.118-.08.158-.238.158-.476v-2.97c0-.079.04-.118.119-.118h1.108c.079 0 .119.04.119.118zM198.031 15.295h1.237c.197 0 .34-.043.433-.136.093-.089.139-.251.139-.487V8.566c0-.081.039-.12.116-.12h1.11c.077 0 .116.039.116.12v6.412c0 .51-.104.885-.321 1.125-.212.24-.568.36-1.071.36h-5.225c-.081 0-.12-.04-.12-.116v-.932c0-.082.039-.12.12-.12h2.12v-5.07c0-.078.038-.116.116-.116h1.11c.077 0 .12.038.12.116v5.07zM204 16.347c0 .077-.039.116-.12.116h-1.106c-.081 0-.12-.04-.12-.116V8.566c0-.081.039-.12.12-.12h1.106c.081 0 .12.039.12.12v7.78zM71.871 21.109h-1.149c-.079 0-.118.04-.118.119v1.03c0 .079.04.118.118.118h1.15c.078 0 .118-.04.118-.118v-1.03c0-.08-.04-.12-.119-.12zM81.333 21.109h-1.148c-.079 0-.119.04-.119.119v1.03c0 .079.04.118.119.118h1.148c.08 0 .12-.04.12-.118v-1.03c0-.08-.04-.12-.12-.12zM81.412 23.644v3.287c0 .514-.079.91-.316 1.148-.198.238-.555.356-1.07.356h-.281c-.25 0-6.341.011-6.592 0-.233-.012-.482-.026-.71-.081-.194-.047-.355-.175-.495-.315v.238c0 .396-.04.792-.078 1.109-.08.317-.2.594-.358.792-.158.198-.395.356-.672.475-.238.119-.594.158-.99.158h-.436c-.08 0-.12-.04-.12-.119v-.95c0-.08.04-.119.12-.119h.277c.198 0 .396-.04.515-.119.118-.079.237-.198.277-.316.08-.159.12-.357.12-.594v-4.95c0-.08.038-.12.118-.12h1.109c.079 0 .118.04.118.12v2.89c0 .238.12.396.278.555.197.119.435.158.713.158h6.573c.198 0 .357-.04.435-.119.08-.079.12-.237.12-.475v-3.01c0-.079.039-.118.118-.118h1.109c.079 0 .118.04.118.119zM85.009 24.505c-.364 0-.646.131-.843.402-.201.267-.299.623-.299 1.071 0 .495.101.832.302 1.013.201.182.496.271.874.271h1.06V25.92c0-.464-.085-.816-.26-1.056-.173-.24-.452-.36-.834-.36zm-.105 3.925c-.375 0-.707-.042-.998-.124-.29-.081-.533-.22-.73-.414-.198-.19-.353-.44-.457-.746-.108-.31-.162-.684-.162-1.133 0-.48.065-.89.197-1.233.131-.341.31-.62.533-.836.229-.216.488-.371.782-.472.294-.096.603-.147.928-.147.36 0 .684.047.982.143.298.093.553.244.77.445.212.205.379.472.499.805.12.328.177.73.177 1.21v2.757c0 .739-.185 1.28-.556 1.62-.376.337-.92.507-1.632.507h-1.61c-.077 0-.119-.038-.119-.12v-.943c0-.077.042-.116.12-.116h1.392c.159 0 .306-.016.441-.043.136-.027.252-.085.348-.17.093-.085.166-.209.216-.364.055-.158.078-.367.078-.626h-1.2zM88.233 30.808c-.08 0-.12-.039-.12-.12v-.944c0-.077.04-.116.12-.116h.263c.333 0 .573-.08.72-.247.147-.166.22-.418.22-.754V23.65c0-.077.039-.116.12-.116h1.106c.078 0 .12.039.12.116v5c0 1.439-.704 2.158-2.108 2.158h-.44zM101.808 20.515v6.415c0 .515-.118.91-.317 1.149-.237.237-.593.356-1.108.356h-1.375c-.34 0-.678.008-1.016-.008-.17-.008-.341-.022-.51-.046-.151-.02-.328-.035-.466-.105-.237-.078-.435-.237-.594-.514-.118.277-.356.436-.594.514-.277.12-.594.16-.99.16h-2.653c-.08 0-.119-.04-.119-.12v-.95c0-.08.04-.119.119-.119h2.178c.238 0 .397 0 .515-.04.158-.039.238-.079.317-.158.039-.079.119-.159.119-.277.04-.119.04-.277.04-.435v-.793c0-.356-.12-.633-.318-.791-.198-.16-.514-.238-.91-.238H92.7c-.08 0-.118-.04-.118-.119v-.95c0-.08.039-.12.118-.12h1.822c.673 0 1.188.16 1.583.476.397.357.595.871.595 1.624v1.109c0 .237.079.395.237.514.198.159.436.198.713.198h2.218c.198 0 .356-.04.435-.119.119-.08.159-.238.159-.475v-6.138c0-.079.039-.119.119-.119h1.109c.078 0 .118.04.118.12zM104.631 28.31c0 .077-.039.116-.12.116h-1.106c-.081 0-.12-.039-.12-.116l-.004-7.78c0-.082.039-.12.12-.12h1.106c.081 0 .12.038.12.12l.004 7.78zM108.393 24.5c-.363 0-.645.133-.842.403-.202.267-.299.623-.299 1.072 0 .494.101.83.302 1.012.201.182.495.271.874.271h1.06v-1.341c0-.465-.085-.817-.259-1.057s-.453-.36-.836-.36zm-.104 3.926c-.375 0-.708-.042-.998-.124-.29-.08-.534-.22-.731-.413-.197-.19-.352-.441-.456-.747-.108-.31-.163-.684-.163-1.133 0-.48.066-.89.198-1.233.131-.341.309-.62.533-.836.229-.216.488-.371.781-.472.295-.096.604-.147.929-.147.359 0 .685.047.982.143.298.093.553.244.77.445.212.205.379.472.499.805.119.329.177.735.177 1.214v2.757c0 .739-.185 1.276-.557 1.617-.374.336-.92.506-1.632.506h-1.608c-.078 0-.12-.038-.12-.12v-.943c0-.077.042-.116.12-.116h1.392c.159 0 .306-.016.441-.043.135-.027.251-.085.348-.17.093-.085.166-.209.217-.364.054-.158.077-.367.077-.626h-1.199zM116.381 20.634h-1.03c-.079 0-.119.04-.119.119l.04 1.03c0 .04.04.078.079.078h1.03c.079 0 .119-.039.119-.078v-1.03c0-.08-.04-.12-.119-.12zm1.543 0h-.989c-.079 0-.119.04-.119.119v1.03c0 .04.04.078.119.078h.989c.08 0 .12-.039.12-.078v-1.03c0-.08-.04-.12-.12-.12zM123.628 29.425h-1.109c-.079 0-.119.04-.119.119v.99c0 .08.04.119.119.119h1.109c.079 0 .118-.04.118-.12v-.99c0-.078-.039-.118-.118-.118zM131.389 27.01c-.198.197-.476.316-.872.316s-.673-.119-.832-.317c-.197-.237-.276-.594-.276-1.069s.079-.832.276-1.07c.159-.237.436-.355.832-.355.753 0 1.148.475 1.148 1.425 0 .475-.118.832-.276 1.07zm-13.742-1.506c0 .396-.079.713-.277.95-.198.199-.475.318-.831.318-.357 0-.594-.08-.792-.277-.198-.159-.278-.436-.278-.793 0-.475.08-.792.278-.95.237-.159.514-.237.831-.237h1.069v.99zm15.127-.792c-.119-.316-.277-.593-.514-.791-.198-.198-.476-.357-.753-.476-.316-.079-.633-.119-.99-.119-.356 0-.673.04-.95.12-.317.078-.554.237-.792.435-.198.198-.396.475-.514.792-.158.418-.279.986-.165 1.528.005.04.003.083 0 .124-.022.257-.086.5-.272.684-.079.08-.158.159-.237.198-.079.04-.158.04-.238.04h-.673c-.316 0-.554-.04-.713-.159-.158-.118-.277-.277-.277-.514v-.277c0-.396-.039-.793-.119-1.149-.118-.356-.277-.673-.475-.95-.198-.277-.515-.476-.871-.634-.357-.158-.792-.238-1.307-.238-.515 0-.911.08-1.267.278-.316.158-.634.396-.872.673-.039.04-.039.08.04.158l.595.634c.079.04.118.04.157 0 .198-.159.357-.317.595-.436.198-.079.435-.118.712-.118.278 0 .476.04.673.118.159.08.317.198.436.357.119.158.198.356.238.554.04.238.079.475.079.713 0 .198-.039.356-.039.475-.04.119-.08.238-.159.317-.079.08-.158.119-.277.158-.158.04-.317.04-.514.04h-3.763c-.198 0-.356-.04-.435-.119-.08-.08-.119-.277-.119-.515v-3.801c0-.08-.04-.12-.119-.12h-1.109c-.079 0-.119.04-.119.12v.514h-1.187c-.317 0-.595.04-.872.12-.277.078-.515.197-.753.395-.197.159-.395.436-.514.713-.119.317-.198.713-.198 1.149 0 .396.079.752.158 1.03.119.276.317.474.516.672.197.198.435.317.712.396.277.08.554.12.872.12.236 0 .474 0 .712-.08s.436-.198.594-.317c.079.317.237.554.436.713.238.119.514.198.91.198h4.792c.396 0 .713-.08.95-.159.278-.079.476-.277.634-.554.158.277.356.475.594.554.238.12.514.159.871.159h.396c.119 0 .238-.04.357-.04.158 0 .276-.04.396-.079.118-.04.238-.119.356-.198.079-.08.198-.158.277-.277.198.237.475.396.792.515.317.079.673.158 1.069.158.357 0 .714-.04.99-.158.317-.08.555-.238.792-.436.198-.198.356-.475.475-.792.119-.317.199-.713.199-1.188s-.08-.872-.199-1.228zM139.863 29.425h-1.148c-.079 0-.119.04-.119.119v.99c0 .08.04.119.119.119h1.148c.08 0 .119-.04.119-.12v-.99c0-.078-.039-.118-.119-.118z" clip-rule="evenodd"/>
    <path fill="#fff" fill-rule="evenodd" d="M143.586 20.515v6.415c0 .515-.119.871-.317 1.11-.198.276-.554.395-1.069.395h-1.148c-.238 0-.515-.04-.713-.119-.238-.079-.396-.237-.555-.515-.119.238-.277.397-.474.476-.238.08-.516.158-.912.158h-.989c-.278 0-.515-.04-.714-.079-.198-.04-.355-.158-.474-.317v.198c0 .436-.04.792-.119 1.11-.079.355-.199.593-.357.83-.158.199-.396.357-.634.476-.277.08-.633.158-1.029.158h-.436c-.079 0-.119-.04-.119-.119v-.95c0-.08.04-.119.119-.119h.278c.237 0 .396-.04.515-.119.158-.079.237-.198.316-.356.04-.158.079-.317.079-.554 0-.198.04-.476.04-.753v-4.197c0-.08.039-.12.119-.12h1.109c.079 0 .119.04.119.12v2.89c0 .238.079.396.237.515.198.159.436.198.753.198h.831c.119 0 .238 0 .317-.04.079-.039.158-.118.158-.197.04-.08.079-.198.079-.357v-3.01c0-.079.04-.118.119-.118h1.109c.079 0 .119.04.119.119v2.89c0 .238.118.396.277.515.198.159.435.198.713.198h.752c.198 0 .317-.04.436-.119.079-.118.119-.277.119-.514v-6.099c0-.079.039-.119.119-.119h1.108c.079 0 .119.04.119.12zM146.424 28.302c0 .078-.039.116-.12.116h-1.106c-.081 0-.12-.038-.12-.116l-.004-7.78c0-.082.039-.12.12-.12h1.106c.081 0 .12.038.12.12l.004 7.78zM150.186 24.493c-.363 0-.645.132-.842.402-.202.267-.298.623-.298 1.072 0 .495.1.83.301 1.013.201.181.495.27.874.27h1.06V25.91c0-.465-.085-.816-.259-1.056-.174-.24-.453-.36-.836-.36zm-.104 3.925c-.375 0-.708-.042-.998-.123-.29-.082-.534-.22-.731-.414-.197-.19-.351-.441-.456-.746-.108-.31-.163-.685-.163-1.134 0-.48.066-.89.198-1.233.131-.34.309-.619.534-.836.228-.216.487-.37.78-.471.295-.097.604-.147.929-.147.359 0 .685.046.982.143.298.092.553.243.77.444.213.205.379.473.499.805.119.329.178.735.178 1.214v2.757c0 .74-.186 1.276-.558 1.617-.374.336-.92.507-1.632.507h-1.608c-.078 0-.12-.04-.12-.12v-.944c0-.077.042-.116.12-.116h1.392c.159 0 .306-.015.441-.043.135-.026.251-.084.348-.17.093-.085.166-.209.217-.363.054-.159.077-.368.077-.627h-1.199zM159.782 31.603h-.99c-.079 0-.118.04-.118.119v1.03c0 .079.039.118.118.118h.99c.079 0 .119-.04.119-.119v-1.03c0-.078-.04-.118-.119-.118zm1.545 0h-.99c-.08 0-.119.04-.119.119v1.03c0 .079.039.118.119.118h.99c.079 0 .118-.04.118-.119v-1.03c0-.078-.039-.118-.118-.118zM167.107 21.109h-1.148c-.079 0-.119.04-.119.119v.99c0 .08.04.119.119.119h1.148c.079 0 .119-.04.119-.12v-.99c0-.079-.04-.118-.119-.118zM167.186 23.644v3.287c0 .514-.079.87-.316 1.108-.198.238-.556.357-1.07.357h-1.98c.04.079.08.198.119.316.079.159.079.278.079.436 0 .238-.039.436-.118.634-.08.198-.238.356-.397.515-.197.158-.435.277-.752.356-.277.08-.634.158-1.069.158h-2.732c-1.03 0-1.783-.237-2.298-.712-.514-.476-.752-1.11-.752-1.94 0-.199.04-.436.08-.634.039-.238.079-.476.158-.674l.238-.594c.078-.158.197-.356.316-.475.04-.08.08-.08.159-.04l.95.476c.04.04.04.119 0 .158-.119.238-.238.475-.357.792-.118.277-.158.594-.158.871 0 .317.04.555.158.753.08.198.238.356.397.475.198.119.396.198.593.238.238.079.476.079.674.079h2.336c.476 0 .792-.04.99-.159.159-.119.238-.277.238-.475 0-.119-.04-.238-.119-.356-.079-.12-.237-.238-.436-.317-.197-.08-.435-.198-.713-.317-.316-.08-.673-.238-1.068-.356-.08-.04-.12-.08-.08-.159l.317-.91c.039-.08.079-.12.158-.12.238.12.476.199.713.318.238.079.476.158.673.237.238.08.436.159.674.198.198.04.435.08.673.08h1.822c.197 0 .356-.04.435-.12.079-.118.119-.277.119-.514v-2.97c0-.08.04-.12.119-.12h1.108c.079 0 .119.04.119.12zM169.855 28.298c0 .078-.038.116-.12.116h-1.105c-.082 0-.12-.039-.12-.116l-.004-7.78c0-.082.039-.12.12-.12h1.106c.081 0 .119.038.119.12l.004 7.78zM183.449 29.385h-1.148c-.079 0-.119.04-.119.159v.99c0 .079.04.119.119.119h1.148c.079 0 .119-.04.119-.12v-1.029c0-.08-.04-.119-.119-.119zM187.922 29.425h-.99c-.078 0-.118.04-.118.119v1.03c0 .079.04.118.118.118h.99c.08 0 .12-.04.12-.118v-1.03c0-.08-.04-.119-.12-.119zm-1.543 0h-.991c-.079 0-.118.04-.118.119v1.03c0 .079.039.118.118.118h.991c.079 0 .118-.04.118-.118v-1.03c0-.08-.039-.119-.118-.119z" clip-rule="evenodd"/>
    <path fill="#fff" fill-rule="evenodd" d="M201.149 20.515v6.415c0 .515-.079.871-.317 1.11-.197.236-.554.356-1.069.356h-1.108c-.317 0-.555-.04-.793-.08-.237-.079-.395-.237-.554-.515-.119.238-.277.397-.475.476-.198.08-.475.119-.832.119h-.514c-.278 0-.516-.04-.713-.159-.198-.079-.357-.237-.436-.436-.119.238-.277.397-.515.476-.198.08-.475.119-.832.119h-.514c-.594 0-.95-.198-1.188-.595-.08.199-.238.357-.475.476-.198.08-.475.119-.832.119h-1.584c-.238 0-.436-.04-.594-.08-.237-.079-.435-.237-.554-.515-.119.238-.278.397-.515.476-.238.08-.515.119-.911.119h-1.109c-.316 0-.554-.04-.792-.08-.237-.079-.435-.237-.554-.515-.119.238-.278.397-.515.476-.197.08-.515.119-.871.119h-7.55c-.277 0-.514 0-.673-.04-.198-.04-.357-.158-.515-.317v.198c0 .436-.039.792-.119 1.11-.039.355-.158.593-.356.83-.159.199-.357.357-.633.476-.278.08-.595.158-.991.158h-.435c-.08 0-.119-.04-.119-.119v-.95c0-.08.039-.119.119-.119h.238c.237 0 .435-.04.554-.119.119-.079.198-.198.277-.356.04-.158.079-.317.119-.554v-4.95c0-.08.04-.12.118-.12h1.109c.08 0 .119.04.119.12v2.89c0 .199.079.396.278.515.158.12.396.198.712.198H181.627c.118 0 .237-.04.316-.04.079-.039.119-.118.158-.197.04-.08.08-.198.08-.357v-3.01c0-.079.04-.118.119-.118h1.108c.08 0 .119.04.119.119v2.85c0 .239.08.436.278.555.158.12.395.198.712.198h.991c.118 0 .237-.04.316-.079.079-.04.118-.12.158-.198.04-.08.079-.198.079-.356v-2.97c0-.04.04-.08.08-.12h1.148c.08 0 .119.04.119.12v2.85c0 .239.079.436.277.555.158.12.396.198.713.198h1.149c.158 0 .277-.04.356-.079.039-.04.118-.12.158-.198.04-.08.04-.198.04-.356v-2.06c0-.079.04-.118.119-.118h1.109c.079 0 .118.04.118.119v1.94c0 .277.08.435.198.554.159.12.356.198.634.198.198 0 .356 0 .475-.04.119-.039.198-.079.237-.158.08-.119.119-.237.119-.356v-2.139c0-.079.04-.118.119-.118h1.109c.079 0 .119.04.119.119v1.98c0 .237.08.435.237.554.159.08.357.158.595.158.198 0 .356 0 .435-.04.118-.039.198-.079.277-.158.04-.079.079-.198.119-.356v-3.05c0-.079.039-.118.119-.118h1.109c.079 0 .119.04.119.119v2.85c0 .239.079.436.276.555.159.12.436.198.714.198h.792c.198 0 .356-.04.435-.158.079-.08.119-.238.119-.475v-6.099c0-.079.039-.119.118-.119h1.109c.079 0 .119.04.119.12zM204 28.294c0 .078-.039.116-.12.116h-1.106c-.081 0-.12-.038-.12-.116l-.004-7.78c0-.082.039-.12.12-.12h1.106c.082 0 .12.038.12.12l.004 7.78zM71.356 41.84c-.203 0-.403-.019-.6-.059-.191-.038-.38-.09-.553-.158-.177-.067-.338-.146-.488-.238-.146-.092-.277-.19-.384-.296-.043-.044-.047-.086-.016-.125l.504-.6c.034-.046.073-.048.111-.01.088.074.185.145.296.218.112.073.23.136.358.192.127.056.261.102.4.137.142.036.288.056.446.056.33 0 .584-.078.765-.231.18-.152.273-.348.273-.589 0-.205-.073-.372-.22-.503-.145-.131-.407-.225-.788-.28l-.288-.041c-.538-.079-.945-.25-1.234-.514-.285-.265-.427-.632-.427-1.105 0-.255.042-.49.127-.701.088-.212.211-.392.373-.542.162-.15.358-.266.588-.346.231-.081.488-.122.773-.122.346 0 .677.052.984.154.311.104.577.24.8.414.038.032.042.073.015.117l-.388.617c-.03.044-.07.054-.116.025-.226-.15-.441-.261-.653-.335-.212-.07-.434-.107-.665-.107-.28 0-.496.071-.646.213-.146.142-.223.323-.223.546 0 .194.077.358.227.488.154.131.415.223.788.28l.292.041c.535.08.942.25 1.223.513.28.264.422.64.422 1.13 0 .25-.046.485-.13.702-.088.216-.22.402-.392.558-.177.156-.396.278-.654.367-.257.09-.558.135-.9.135zM76.602 39.686l-.73-2.203h-.024l-.738 2.203h1.492zm-1.208-3.53c.016-.055.05-.082.104-.082h.746c.054 0 .089.027.108.083l1.86 5.507c.02.055 0 .083-.053.083h-.796c-.054 0-.088-.028-.104-.083l-.365-1.102-2.076.002-.361 1.102c-.02.055-.054.083-.108.083h-.785c-.053 0-.072-.028-.057-.083l1.887-5.51zM80.446 40.955c.32 0 .58-.106.78-.314.2-.21.3-.51.3-.905v-3.58c0-.055.028-.082.081-.082h.792c.054 0 .081.027.081.083v3.596c0 .327-.05.621-.154.88-.1.258-.242.477-.423.654-.18.179-.396.316-.646.41-.246.094-.519.142-.81.142-.29 0-.558-.048-.804-.142-.246-.094-.462-.231-.642-.41-.18-.177-.323-.396-.423-.654-.104-.259-.154-.553-.154-.88v-3.596c0-.056.027-.083.08-.083h.793c.054 0 .08.027.08.083v3.579c0 .396.1.696.3.905.2.208.458.314.77.314zM84.264 40.813c0 .032.015.05.046.05h.819c.308 0 .558-.056.742-.168.188-.111.319-.294.4-.55.019-.04.03-.088.042-.146.011-.06.02-.134.027-.224.007-.093.015-.208.023-.348.004-.139.008-.312.008-.518 0-.205-.004-.376-.008-.516-.008-.139-.016-.256-.023-.35-.008-.095-.016-.17-.027-.225-.012-.056-.023-.104-.042-.143-.081-.255-.212-.438-.4-.55-.184-.11-.434-.166-.742-.166h-.82c-.03 0-.045.015-.045.05v3.804zm-.957-4.656c0-.056.026-.083.08-.083h1.968c.962 0 1.577.417 1.842 1.257.02.073.039.15.054.23.02.08.03.18.046.297.012.115.023.26.027.429.008.169.008.376.008.62 0 .247 0 .452-.008.623-.004.17-.015.312-.027.429-.015.117-.027.215-.046.296-.015.08-.034.158-.054.23-.265.84-.88 1.262-1.842 1.262h-1.968c-.054 0-.08-.027-.08-.083v-5.507zM88.016 36.155c0-.056.026-.083.08-.083h.796c.054 0 .08.027.08.083v5.507c0 .055-.026.083-.08.083h-.796c-.054 0-.08-.028-.08-.083v-5.507zM91.387 36.155c0-.056.026-.083.08-.083h3.453c.053 0 .08.027.08.083v.716c0 .056-.026.085-.08.085h-2.53c-.03 0-.046.015-.046.05v1.444c0 .032.016.05.046.05h2.134c.054 0 .08.027.08.082v.717c0 .056-.026.085-.08.085H92.39c-.03 0-.046.015-.046.05v2.228c0 .055-.027.083-.08.083h-.796c-.055 0-.081-.028-.081-.083v-5.507zM95.574 36.155c0-.056.027-.083.08-.083l3.453-.002c.054 0 .08.027.08.083v.717c0 .056-.026.084-.08.084l-2.53.002c-.03 0-.046.015-.046.05v1.384c0 .035.016.05.046.05l2.134-.002c.054 0 .08.03.08.085v.717c0 .056-.026.082-.08.082l-2.134.002c-.03 0-.046.018-.046.05v1.436c0 .033.016.05.046.05l2.53-.002c.054 0 .08.028.08.083v.719c0 .056-.026.083-.08.083l-3.452.002c-.054 0-.08-.027-.08-.083v-5.507zM100.794 40.809c0 .033.015.05.046.05h.818c.308 0 .558-.056.743-.168.188-.111.319-.294.399-.55.019-.04.031-.088.042-.145.012-.06.02-.135.027-.225.008-.093.016-.208.023-.348.004-.139.008-.312.008-.517 0-.206-.004-.377-.008-.517-.007-.139-.015-.256-.023-.35-.007-.094-.015-.17-.027-.225-.011-.056-.023-.104-.042-.142-.08-.256-.211-.438-.399-.55-.185-.112-.435-.167-.743-.167h-.818c-.031 0-.046.015-.046.05v3.804zm-.958-4.656c0-.056.027-.083.081-.083h1.968c.961 0 1.577.42 1.842 1.26.019.072.038.15.054.228.019.081.031.181.046.298.011.115.023.26.027.429.008.169.008.377.008.62 0 .246 0 .453-.008.623-.004.17-.016.312-.027.43-.015.116-.027.214-.046.295-.016.08-.035.158-.054.23-.265.84-.881 1.26-1.842 1.26h-1.968c-.054 0-.081-.027-.081-.083v-5.507zM104.543 36.153c0-.056.026-.083.08-.083h3.453c.054 0 .081.027.081.083v.716c0 .056-.027.085-.081.085h-2.53c-.031 0-.046.015-.046.05v1.384c0 .035.015.05.046.05h2.134c.054 0 .081.029.081.085v.717c0 .055-.027.082-.081.082h-2.134c-.031 0-.046.018-.046.05v1.436c0 .033.015.05.046.05h2.53c.054 0 .081.027.081.083v.719c0 .055-.027.083-.081.083h-3.453c-.054 0-.08-.028-.08-.083v-5.507zM110.983 38.562c.253 0 .457-.072.611-.216.154-.146.23-.34.23-.584 0-.25-.076-.448-.23-.592-.154-.146-.358-.217-.611-.217l-1.177.001c-.031 0-.046.016-.046.05v1.51c0 .034.015.05.046.05l1.177-.002zm.949 3.179c-.061 0-.1-.027-.123-.083l-1.053-2.212-.95.002c-.031 0-.046.017-.046.052v2.16c0 .056-.027.083-.081.083h-.795c-.054 0-.081-.027-.081-.083v-5.507c0-.056.027-.083.081-.083l2.129-.002c.254 0 .489.04.704.126.211.082.396.198.553.345.158.148.281.325.37.535.088.207.134.438.134.688 0 .373-.096.696-.284.967-.189.273-.442.47-.762.592l1.158 2.312c.015.027.019.052.004.075-.012.021-.035.033-.062.033h-.896zM116.094 39.68l-.73-2.202h-.024l-.738 2.202h1.492zm-1.207-3.529c.015-.055.05-.083.103-.083h.746c.054 0 .089.028.108.083l1.861 5.507c.019.056 0 .083-.054.083h-.796c-.053 0-.088-.027-.103-.083l-.366-1.101h-2.076l-.361 1.101c-.019.056-.054.083-.108.083h-.784c-.054 0-.073-.027-.058-.083l1.888-5.507zM118.841 41.74c-.054 0-.081-.026-.081-.082v-4.656c0-.034-.015-.05-.046-.05h-1.446c-.053 0-.08-.028-.08-.084v-.717c0-.056.027-.083.08-.083h3.941c.054 0 .081.027.081.083v.717c0 .056-.027.084-.081.084h-1.442c-.035 0-.05.016-.05.05v4.656c0 .056-.027.083-.081.083h-.795zM121.719 36.15c0-.055.026-.082.08-.082l.796-.002c.054 0 .081.027.081.083v5.507c0 .056-.027.083-.081.083l-.796.002c-.054 0-.08-.027-.08-.083v-5.507zM125.464 40.947c.273 0 .496-.066.661-.196.17-.13.293-.313.366-.548.015-.05.031-.108.042-.175.012-.065.02-.15.027-.25.008-.1.015-.221.019-.363.008-.14.012-.312.012-.513 0-.2-.004-.371-.012-.514-.004-.14-.011-.261-.019-.361-.007-.1-.015-.184-.027-.252-.011-.065-.027-.125-.042-.175-.073-.232-.196-.415-.366-.546-.165-.13-.388-.196-.661-.196-.276 0-.495.066-.661.197-.165.13-.284.313-.361.545-.016.05-.031.11-.043.175-.015.068-.026.152-.034.252-.008.1-.012.221-.016.361-.003.143-.003.314-.003.514 0 .201 0 .373.003.513.004.142.008.263.016.363.008.1.019.185.034.25.012.067.027.125.043.175.077.235.196.417.361.548.166.13.385.196.661.196zm0 .884c-.476 0-.884-.115-1.226-.346-.338-.23-.581-.573-.719-1.023-.027-.088-.05-.178-.069-.267-.019-.088-.035-.192-.046-.307-.008-.117-.019-.256-.023-.413-.004-.16-.008-.35-.008-.573 0-.221.004-.412.008-.572.004-.157.015-.295.023-.413.011-.117.027-.219.046-.307.019-.09.042-.18.069-.267.138-.452.381-.793.719-1.023.342-.23.75-.346 1.226-.346.481 0 .889.115 1.231.346.338.23.58.57.722 1.023.027.088.046.177.066.267.019.088.034.19.046.307.011.117.019.256.023.413.007.16.007.35.007.572 0 .222 0 .413-.007.572-.004.158-.012.297-.023.414-.012.115-.027.219-.046.307-.02.089-.039.18-.066.267-.142.45-.384.792-.722 1.023-.342.23-.75.346-1.231.346zM128.256 36.15c0-.057.027-.084.08-.084h.746c.058 0 .104.027.139.083l2.245 3.914h.031v-3.914c0-.056.026-.083.08-.083h.704c.054 0 .084.027.084.083v5.507c0 .056-.03.083-.084.083h-.734c-.062 0-.108-.027-.139-.083l-2.253-3.906h-.03v3.906c0 .056-.028.083-.085.083h-.704c-.053 0-.08-.027-.08-.083V36.15zM134.779 36.147c0-.056.027-.082.081-.082h3.452c.054 0 .081.026.081.082v.717c0 .056-.027.085-.081.085h-2.529c-.031 0-.046.015-.046.05v1.444c0 .032.015.05.046.05h2.133c.054 0 .081.026.081.082v.717c0 .056-.027.084-.081.084h-2.133c-.031 0-.046.016-.046.05v2.228c0 .056-.027.083-.081.083h-.796c-.054 0-.081-.027-.081-.083v-5.507zM140.896 40.945c.273 0 .496-.066.661-.196.17-.13.293-.313.366-.548.015-.05.031-.108.042-.175.012-.065.02-.15.027-.25.008-.1.015-.221.019-.363.008-.14.012-.311.012-.513 0-.2-.004-.371-.012-.513-.004-.14-.011-.262-.019-.362-.007-.1-.015-.184-.027-.252-.011-.065-.027-.125-.042-.175-.073-.232-.196-.415-.366-.545-.165-.131-.388-.197-.661-.197-.276 0-.495.066-.661.197-.165.13-.284.313-.362.545-.015.05-.03.11-.042.175-.015.068-.026.152-.034.252-.008.1-.012.221-.016.362-.004.142-.004.313-.004.513 0 .202 0 .373.004.513.004.142.008.263.016.363.008.1.019.185.034.25.012.067.027.125.042.175.078.235.197.417.362.548.166.13.385.196.661.196zm0 .884c-.476 0-.884-.115-1.226-.346-.338-.23-.581-.572-.719-1.022-.027-.089-.05-.18-.069-.268-.019-.088-.035-.192-.046-.307-.008-.117-.019-.256-.023-.413-.004-.16-.008-.35-.008-.573 0-.221.004-.412.008-.571.004-.158.015-.296.023-.414.011-.117.027-.219.046-.307.019-.09.042-.179.069-.267.138-.452.381-.792.719-1.023.342-.23.75-.346 1.226-.346.481 0 .889.115 1.231.346.338.231.58.571.722 1.023.027.088.046.177.066.267.019.088.034.19.046.307.011.118.019.256.023.414.007.16.007.35.007.57 0 .224 0 .414-.007.574-.004.157-.012.296-.023.413-.012.115-.027.219-.046.307-.02.089-.039.18-.066.268-.142.45-.384.792-.722 1.022-.342.23-.75.346-1.231.346zM145.869 38.556c.254 0 .458-.071.612-.215.153-.146.23-.34.23-.585 0-.25-.077-.448-.23-.592-.154-.146-.358-.217-.612-.217l-1.176.002c-.031 0-.046.015-.046.05v1.509c0 .035.015.05.046.05l1.176-.002zm.95 3.18c-.062 0-.1-.028-.123-.083l-1.053-2.213-.95.002c-.031 0-.046.017-.046.052v2.16c0 .056-.027.083-.081.083h-.796c-.054 0-.081-.027-.081-.082v-5.508c0-.056.027-.082.081-.082l2.13-.002c.254 0 .488.04.703.125.212.083.396.198.554.346.158.148.281.325.369.534.089.208.135.438.135.688 0 .373-.096.696-.284.967-.189.273-.443.471-.762.592l1.157 2.313c.016.027.02.051.004.075-.011.02-.034.032-.061.032h-.896zM149.888 40.434c-.027-.089-.05-.177-.069-.263-.019-.087-.034-.187-.046-.3-.008-.114-.019-.248-.023-.4-.004-.154-.008-.344-.008-.573 0-.221.004-.411.008-.567.004-.156.015-.29.023-.404.012-.115.027-.215.046-.3.019-.086.042-.175.069-.263.139-.467.377-.817.708-1.047.334-.231.734-.347 1.203-.347.442 0 .827.108 1.146.325.322.218.561.515.718.894.016.05.004.083-.042.1l-.688.342c-.046.027-.085.014-.104-.042-.092-.2-.219-.373-.376-.517-.162-.145-.377-.217-.654-.217-.265 0-.477.067-.634.2-.162.134-.277.317-.354.551-.015.062-.031.121-.042.183-.016.062-.027.14-.035.238-.007.096-.011.215-.015.354-.004.14-.004.311-.004.517 0 .211 0 .386.004.523.004.136.008.252.015.35.008.098.019.178.035.242.011.063.027.123.042.179.077.234.192.417.354.551.157.133.369.2.634.2.277 0 .492-.073.654-.217.157-.144.284-.317.376-.517.019-.056.058-.07.104-.042l.688.342c.046.017.058.05.042.1-.157.378-.396.676-.718.892-.319.217-.704.326-1.146.326-.469 0-.869-.115-1.203-.346-.331-.23-.569-.58-.708-1.047zM155.375 41.735c-.058 0-.085-.027-.085-.083v-2.237l-1.595-3.27c-.02-.056 0-.083.065-.083h.819c.054 0 .092.027.115.083l1.076 2.203h.024l1.088-2.203c.019-.056.057-.083.111-.083l.785-.002c.065 0 .088.027.065.083l-1.595 3.272v2.237c0 .056-.028.083-.082.083h-.791zM159.149 40.816c0 .033.015.05.046.05h1.153c.269 0 .477-.073.619-.217.142-.144.215-.337.215-.577 0-.232-.073-.423-.215-.567-.142-.144-.35-.217-.619-.217h-1.153c-.031 0-.046.017-.046.05v1.478zm1.149-2.395c.242 0 .435-.067.577-.204.138-.136.208-.317.208-.538 0-.229-.07-.411-.208-.548-.142-.134-.335-.204-.577-.204h-1.103c-.031 0-.046.018-.046.05v1.394c0 .033.015.05.046.05h1.103zm-2.107-2.278c0-.055.027-.083.081-.083h2.049c.585 0 1.015.137 1.3.414.28.275.419.64.419 1.096 0 .322-.062.58-.189.772-.127.193-.277.334-.45.429v.017c.085.033.173.087.258.158.088.073.165.163.234.27.07.11.131.235.174.378.046.142.069.297.069.47 0 .568-.162.989-.493 1.26-.33.273-.795.409-1.403.409h-1.968c-.054 0-.081-.027-.081-.082v-5.508zM162.756 36.143c0-.055.027-.083.08-.083h3.453c.054 0 .08.028.08.083v.717c0 .056-.026.085-.08.085h-2.53c-.03 0-.046.015-.046.05v1.384c0 .034.016.05.046.05h2.134c.054 0 .08.029.08.084v.718c0 .055-.026.082-.08.082h-2.134c-.03 0-.046.017-.046.05v1.436c0 .033.016.05.046.05h2.53c.054 0 .08.027.08.083v.718c0 .056-.026.083-.08.083h-3.453c-.053 0-.08-.027-.08-.082v-5.508zM169.194 38.552c.253 0 .457-.071.611-.216.153-.145.23-.34.23-.584 0-.25-.077-.448-.23-.592-.154-.146-.358-.217-.611-.217l-1.177.002c-.031 0-.046.015-.046.05v1.509c0 .034.015.05.046.05l1.177-.002zm.949 3.179c-.061 0-.1-.027-.123-.082l-1.053-2.213-.95.002c-.031 0-.046.017-.046.052v2.16c0 .056-.027.083-.081.083h-.796c-.054 0-.08-.027-.08-.082v-5.508c0-.056.026-.082.08-.082l2.13-.002c.254 0 .488.04.704.125.211.082.396.197.554.345.157.148.28.325.369.535.088.207.134.438.134.688 0 .373-.096.696-.284.967-.189.273-.443.47-.762.592l1.157 2.312c.016.028.02.052.004.076-.011.02-.034.032-.061.032h-.896zM173.407 41.824c-.203 0-.403-.02-.599-.06-.192-.038-.381-.09-.554-.158-.177-.067-.338-.146-.488-.238-.146-.092-.277-.19-.384-.296-.043-.044-.047-.086-.016-.125l.504-.6c.034-.046.073-.048.111-.009.088.073.185.144.296.217.111.073.231.137.357.192.128.056.262.102.4.137.143.036.289.056.446.056.331 0 .585-.077.766-.231.18-.152.272-.348.272-.588 0-.206-.072-.373-.219-.504-.146-.13-.407-.225-.788-.28l-.288-.041c-.539-.079-.946-.25-1.234-.513-.285-.265-.427-.633-.427-1.105 0-.256.042-.49.127-.702.088-.212.211-.392.373-.542.161-.15.357-.266.588-.346.231-.081.488-.121.773-.121.345 0 .676.051.984.153.311.104.576.24.799.414.039.032.043.073.016.117l-.388.617c-.031.044-.07.054-.116.025-.226-.15-.442-.261-.653-.335-.212-.07-.435-.107-.665-.107-.281 0-.496.071-.646.213-.146.143-.223.323-.223.546 0 .194.077.358.227.488.154.131.415.224.788.28l.292.042c.534.078.942.25 1.222.512.281.264.423.64.423 1.13 0 .25-.046.486-.131.703-.088.215-.219.401-.392.557-.176.156-.395.279-.653.367-.258.09-.558.135-.9.135zM176.072 36.141c0-.055.027-.082.081-.082h3.452c.054 0 .081.027.081.082v.717c0 .056-.027.085-.081.085h-2.53c-.03 0-.046.015-.046.05v1.384c0 .034.016.05.046.05h2.134c.054 0 .081.029.081.084v.718c0 .055-.027.082-.081.082h-2.134c-.03 0-.046.018-.046.05v1.436c0 .033.016.05.046.05h2.53c.054 0 .081.027.081.083v.719c0 .055-.027.082-.081.082h-3.452c-.054 0-.081-.027-.081-.082V36.14zM180.32 40.43c-.027-.089-.05-.177-.069-.264-.02-.086-.035-.186-.046-.3-.008-.113-.02-.248-.024-.4-.003-.153-.007-.344-.007-.572 0-.221.004-.412.007-.567.004-.156.016-.29.024-.404.011-.115.026-.215.046-.3.019-.086.042-.175.069-.263.138-.467.376-.82.707-1.05.334-.23.734-.346 1.203-.346.443 0 .827.108 1.146.325.323.217.561.515.719.894.016.05.004.083-.042.1l-.688.342c-.047.027-.085.013-.104-.042-.092-.2-.219-.373-.377-.517-.161-.144-.377-.218-.654-.218-.265 0-.476.068-.634.2-.161.135-.277.318-.353.552-.016.062-.032.121-.043.183-.015.061-.027.14-.035.238-.007.096-.011.215-.015.354-.004.14-.004.311-.004.517 0 .211 0 .386.004.523.004.136.008.251.015.35.008.098.02.178.035.242.011.063.027.123.043.179.076.234.192.417.353.551.158.133.369.2.634.2.277 0 .493-.073.654-.217.158-.144.285-.317.377-.517.019-.056.057-.07.104-.043l.688.343c.046.017.058.05.042.1-.158.378-.396.676-.719.892-.319.217-.703.326-1.146.326-.469 0-.869-.115-1.203-.346-.331-.23-.569-.578-.707-1.045zM186.63 40.937c.319 0 .58-.106.78-.313.2-.21.3-.51.3-.905v-3.58c0-.056.027-.082.081-.082h.792c.054 0 .081.026.081.082v3.597c0 .326-.05.62-.154.88-.1.258-.242.477-.423.654-.181.178-.396.315-.646.409-.246.094-.519.142-.811.142-.289 0-.558-.048-.804-.142-.246-.094-.461-.23-.641-.41-.181-.176-.324-.395-.424-.653-.104-.26-.154-.554-.154-.88v-3.597c0-.056.028-.082.081-.082h.793c.053 0 .08.026.08.082v3.58c0 .395.1.695.3.905.2.207.458.313.769.313zM191.668 38.55c.254 0 .458-.071.611-.217.154-.146.231-.34.231-.585 0-.25-.077-.448-.231-.592-.153-.144-.357-.215-.611-.215h-1.176c-.031 0-.047.015-.047.05V38.5c0 .034.016.05.047.05h1.176zm.95 3.177c-.062 0-.1-.027-.123-.082l-1.054-2.211h-.949c-.031 0-.047.017-.047.052v2.16c0 .056-.026.083-.08.083h-.796c-.054 0-.081-.027-.081-.082v-5.508c0-.056.027-.082.081-.082h2.13c.254 0 .488.04.704.123.211.082.395.198.553.346.157.148.281.325.369.534.088.207.135.438.135.688 0 .373-.097.696-.285.967-.188.273-.442.471-.761.592l1.157 2.312c.016.028.02.052.004.076-.012.02-.034.032-.062.032h-.895zM194.148 36.138c0-.056.027-.083.081-.083h.796c.053 0 .081.027.081.083v5.507c0 .056-.028.082-.081.082h-.796c-.054 0-.081-.026-.081-.082v-5.508zM203.699 36.136l-1.614 3.268v2.244c0 .039 0 .078-.079.078h-.787c-.039 0-.079-.04-.079-.078v-2.244l-1.232-2.48h-1.799c-.039 0-.039.039-.039.078v4.646c0 .039-.04.078-.079.078h-.787c-.079 0-.118-.04-.118-.078v-4.646c0-.04 0-.078-.04-.078h-1.417c-.078 0-.078 0-.078-.08v-.708c0-.04 0-.078.078-.078h4.803c.04 0 .079.039.118.078l1.063 2.205h.04l1.102-2.205c0-.04.039-.078.079-.078h.787c.078 0 .118.039.078.078zM203.078 40.793c0-.056.027-.083.081-.083l.761-.002c.054 0 .081.027.081.083v.91c0 .044 0 .076-.008.1-.004.022-.019.047-.046.074l-.673.72c-.038.04-.077.059-.115.059-.054 0-.081-.03-.081-.085v-1.776zM71.422 49.289c.286 0 .514-.08.677-.238.163-.16.244-.375.244-.642 0-.263-.081-.476-.244-.638-.163-.162-.39-.244-.677-.244h-1.094c-.03 0-.047.016-.047.05v1.662c0 .034.016.05.047.05h1.094zm-2.018 3.055c-.055 0-.082-.027-.082-.083l-.004-5.54c0-.056.028-.083.082-.083h2.08c.263 0 .51.043.735.13.228.087.417.207.58.361.159.153.286.338.375.557.09.219.136.46.136.723 0 .267-.047.51-.136.73-.089.218-.216.403-.375.558-.163.153-.352.275-.58.36-.224.087-.472.131-.735.131h-1.152c-.03 0-.047.016-.047.05l.004 2.023c0 .056-.027.083-.081.083h-.8zM76.304 49.146c.255-.002.46-.074.614-.219.155-.147.232-.342.232-.588 0-.25-.077-.45-.232-.595-.154-.147-.359-.219-.614-.217H75.12c-.031 0-.047.016-.047.05v1.519c0 .034.016.05.047.05h1.183zm.959 3.196c-.062 0-.1-.027-.124-.083l-1.063-2.224h-.955c-.031 0-.047.018-.047.052l.004 2.174c0 .056-.027.083-.082.083h-.8c-.054 0-.081-.027-.081-.083l-.004-5.54c0-.056.027-.083.081-.083l2.143-.002c.255 0 .491.04.708.126.212.083.398.199.556.348.16.149.283.327.371.537.09.21.136.441.136.692 0 .376-.097.7-.286.973-.19.275-.445.474-.766.596l1.168 2.326c.015.027.02.052.004.075-.012.022-.035.033-.062.033h-.901zM81.022 51.545c.274 0 .498-.065.66-.197.171-.131.295-.315.368-.55.016-.05.031-.109.043-.177.011-.066.02-.15.027-.251.008-.1.016-.222.02-.366.007-.14.01-.313.01-.516 0-.2-.003-.373-.01-.516-.004-.141-.012-.263-.02-.364-.008-.1-.016-.185-.027-.253-.012-.066-.027-.125-.043-.176-.073-.233-.197-.418-.367-.55-.166-.13-.39-.196-.665-.196-.278 0-.5.066-.665.197-.166.131-.286.316-.364.55-.015.05-.03.11-.043.175-.015.068-.026.153-.034.253-.008.101-.012.223-.016.364-.003.143-.003.315-.003.516 0 .203 0 .375.004.516.003.144.007.266.015.366.008.1.02.186.034.251.013.068.028.126.043.176.078.236.197.42.364.551.17.132.39.197.669.197zm0 .89c-.48 0-.89-.116-1.234-.348-.34-.232-.584-.576-.727-1.029-.027-.089-.05-.18-.07-.269-.019-.088-.034-.193-.046-.31-.008-.117-.019-.256-.023-.415-.004-.16-.008-.352-.008-.576 0-.222.004-.414.008-.574.004-.159.015-.298.023-.416.012-.118.027-.22.047-.31.019-.09.042-.179.07-.268.138-.455.382-.797.722-1.029.344-.231.754-.347 1.234-.347.483 0 .893.116 1.237.348.341.231.584.573.728 1.028.027.09.046.178.065.269.02.089.035.191.047.31.011.117.019.256.023.415.008.16.008.352.008.574 0 .224 0 .416-.008.576-.004.16-.012.298-.023.416-.012.116-.028.22-.047.31-.02.089-.038.18-.066.268-.139.453-.382.797-.723 1.03-.344.231-.754.347-1.237.347zM84.088 51.059c-.027-.09-.05-.18-.07-.27-.019-.088-.034-.193-.046-.309-.008-.117-.019-.256-.023-.415-.004-.16-.008-.352-.008-.576 0-.223.004-.414.008-.575.004-.158.015-.297.023-.415.012-.118.027-.221.047-.31.019-.09.042-.18.07-.269.138-.454.382-.796.722-1.028.344-.233.762-.349 1.257-.349.26 0 .499.033.708.101.213.068.402.155.565.265.162.108.297.238.406.385.108.149.193.302.25.458.024.05.013.09-.03.118l-.685.31c-.05.017-.085.004-.104-.04-.128-.231-.275-.405-.448-.527-.175-.12-.399-.18-.67-.18-.282 0-.51.066-.676.197-.17.132-.29.316-.368.55-.015.05-.03.11-.042.175-.015.068-.027.153-.035.254-.008.1-.012.222-.016.363-.003.143-.003.316-.003.517 0 .203 0 .375.003.516.004.143.008.264.016.365.008.1.02.186.035.252.011.068.027.126.042.175.078.236.197.42.368.552.17.131.398.197.68.197.244 0 .46-.06.646-.182.193-.12.325-.298.403-.532.026-.089.046-.195.065-.315.016-.12.023-.26.023-.424 0-.034-.015-.05-.05-.05h-.913c-.054 0-.08-.028-.08-.085v-.67c0-.056.026-.084.08-.084h1.833c.055-.002.082.026.082.081v.496c0 .235-.008.466-.031.692-.024.23-.055.415-.097.56-.131.447-.375.793-.72 1.037-.343.243-.754.365-1.233.365-.495 0-.913-.116-1.257-.348-.34-.232-.584-.576-.727-1.028zM91.323 49.142c.256 0 .46-.071.615-.217.155-.146.232-.341.232-.587 0-.252-.077-.45-.232-.596-.155-.146-.36-.218-.615-.218H90.14c-.031 0-.046.015-.046.05v1.518c0 .035.015.05.046.05h1.183zm.96 3.198c-.063 0-.101-.027-.124-.083l-1.064-2.225h-.955c-.031 0-.046.017-.046.052l.004 2.173c0 .056-.028.083-.082.083h-.8c-.054 0-.081-.027-.081-.083l-.004-5.54c0-.056.027-.083.081-.083h2.142c.256 0 .491.041.708.126.213.083.398.2.556.348.16.15.283.327.372.538.09.208.135.44.135.692 0 .375-.096.7-.286.972-.19.275-.445.474-.765.596l1.167 2.326c.016.027.02.052.004.075-.011.022-.035.033-.062.033h-.9zM96.745 50.267l-.735-2.216h-.023l-.742 2.216h1.5zm-1.214-3.55c.015-.056.05-.083.104-.083h.75c.055 0 .09.027.109.084l1.876 5.54c.018.055 0 .082-.055.082h-.8c-.055 0-.09-.027-.105-.083l-.371-1.107H94.95l-.36 1.108c-.02.055-.054.082-.108.082h-.789c-.054 0-.073-.027-.058-.083l1.895-5.54zM99.041 46.718c0-.056.027-.084.081-.084h.727c.07-.001.116.026.14.082l1.523 3.517h.031l1.501-3.517c.019-.056.065-.083.139-.083h.716c.053 0 .081.027.081.083l.003 5.54c0 .056-.027.082-.081.082h-.707c-.055 0-.082-.026-.082-.082l-.004-3.493h-.034l-1.172 2.686c-.031.074-.082.109-.151.109h-.476c-.069 0-.119-.035-.158-.109l-1.172-2.686h-.03l.003 3.493c0 .056-.027.084-.085.084h-.708c-.054 0-.081-.026-.081-.082l-.004-5.54zM105.121 46.715c0-.056.027-.083.081-.083h.727c.07 0 .116.028.14.084l1.523 3.517h.031l1.501-3.517c.019-.056.065-.084.139-.084h.715c.054 0 .081.028.081.084l.004 5.54c0 .056-.027.082-.081.082h-.707c-.055 0-.082-.026-.082-.083l-.004-3.492h-.034l-1.172 2.686c-.031.074-.082.108-.151.108h-.476c-.069 0-.12-.034-.159-.108l-1.171-2.686h-.031l.004 3.492c0 .056-.027.083-.085.083h-.708c-.054 0-.081-.026-.081-.083l-.004-5.54zM111.201 46.716c0-.056.027-.084.081-.084l.801-.001c.054 0 .081.027.081.083l.004 5.54c0 .056-.027.083-.081.083l-.801.002c-.054 0-.081-.027-.081-.083l-.004-5.54zM113.305 46.714c0-.056.027-.084.081-.084h.75c.058 0 .105.028.139.084l2.259 3.936h.031v-3.936c0-.056.027-.084.081-.084h.708c.054 0 .085.028.085.084l.004 5.54c0 .056-.031.082-.085.082h-.739c-.062 0-.108-.026-.14-.082l-2.269-3.93h-.031l.004 3.93c0 .056-.028.082-.086.082h-.707c-.054 0-.081-.026-.081-.082l-.004-5.54zM118.559 51.053c-.027-.09-.05-.18-.07-.269-.019-.09-.034-.193-.046-.31-.008-.117-.019-.256-.023-.415-.004-.16-.008-.352-.008-.576 0-.223.004-.414.008-.575.004-.158.015-.297.023-.415.012-.118.027-.22.046-.31.02-.09.043-.18.07-.269.14-.454.383-.796.724-1.028.344-.232.761-.348 1.256-.348.26 0 .499.033.708.1.213.068.402.155.564.265.163.109.298.238.407.385.108.149.193.302.251.458.023.05.012.09-.031.118l-.685.31c-.05.017-.085.004-.104-.04-.128-.231-.274-.405-.448-.527-.174-.12-.399-.18-.669-.18-.283 0-.511.066-.677.197-.17.132-.29.316-.368.55-.015.05-.031.11-.042.176-.016.067-.027.152-.035.253-.008.1-.011.222-.015.363-.004.144-.004.316-.004.517 0 .203 0 .375.004.516.004.143.007.265.015.365.008.1.019.186.035.252.011.068.027.126.042.176.078.236.198.42.368.55.17.132.398.198.68.198.244 0 .461-.06.646-.182.194-.12.325-.298.402-.531.028-.09.047-.196.066-.316.016-.12.023-.26.023-.423 0-.035-.015-.05-.05-.05h-.913c-.054 0-.081-.03-.081-.085v-.671c0-.056.027-.084.081-.084h1.834c.054 0 .08.028.08.084v.495c0 .235-.007.466-.03.692-.024.228-.054.414-.097.559-.131.446-.375.792-.719 1.036s-.754.366-1.234.366c-.495 0-.912-.116-1.257-.348-.34-.232-.584-.577-.727-1.03zM127.066 48.642c.132-.1.236-.19.318-.27.077-.076.139-.146.182-.208.042-.062.073-.12.088-.176.016-.056.024-.114.024-.176 0-.141-.047-.26-.144-.357-.1-.097-.22-.147-.367-.147-.159 0-.286.05-.383.147-.1.098-.146.22-.146.365 0 .05.003.099.015.143.011.044.031.097.062.155.027.058.073.13.127.215.058.082.136.187.224.309zm-.87 2.208c0 .228.066.414.202.553.135.14.32.21.56.21.151 0 .294-.038.43-.113.127-.076.286-.215.471-.416l-.978-1.292c-.267.213-.449.402-.541.57-.097.169-.144.33-.144.488zm-.846.05c0-.301.077-.59.232-.864.154-.275.425-.569.82-.882-.116-.15-.213-.284-.291-.398-.081-.114-.143-.223-.193-.323-.046-.1-.085-.197-.104-.29-.024-.093-.035-.192-.035-.298 0-.19.039-.365.108-.524.07-.16.167-.298.294-.416.124-.118.271-.209.441-.272.166-.064.344-.097.537-.097.201 0 .383.035.553.105.166.07.31.164.43.282.116.116.204.253.27.41.066.156.097.319.097.487 0 .13-.015.251-.047.365-.034.114-.088.23-.162.344-.077.115-.178.234-.298.356-.124.124-.274.256-.452.395l.862 1.14.553-.678c.035-.039.074-.043.116-.008l.449.395c.043.032.05.071.015.116l-.649.814.193.253c.051.066.101.114.159.14.054.03.116.044.177.044h.124c.055 0 .081.029.081.083v.673c0 .056-.026.083-.081.083h-.267c-.092 0-.174-.008-.247-.021-.07-.014-.135-.037-.193-.072-.062-.033-.12-.078-.182-.133-.058-.056-.12-.13-.186-.219l-.139-.176c-.232.252-.46.433-.685.545-.224.113-.475.169-.758.169-.254 0-.479-.04-.672-.114-.194-.076-.352-.182-.48-.32-.128-.137-.224-.3-.29-.485-.07-.187-.1-.39-.1-.609zM133.434 51.395c0 .033.015.05.046.05h.824c.309 0 .56-.056.746-.168.19-.112.321-.298.402-.555.02-.04.031-.089.043-.147.011-.06.019-.135.027-.226.008-.093.015-.209.023-.35.004-.14.008-.313.008-.52 0-.207-.004-.38-.008-.52-.008-.14-.015-.258-.023-.353-.008-.094-.016-.17-.027-.226-.012-.056-.023-.104-.043-.143-.081-.257-.212-.439-.402-.55-.186-.113-.437-.169-.746-.169h-.824c-.031 0-.046.016-.046.05v3.827zm-.963-4.683c0-.056.027-.084.081-.084h1.98c.966-.001 1.585.42 1.852 1.265.02.074.039.151.054.23.02.081.031.182.047.3.011.116.023.261.027.431.008.17.008.38.008.624 0 .248 0 .455-.008.627-.004.17-.016.313-.027.431-.016.118-.027.217-.047.298-.015.081-.034.159-.054.232-.263.845-.882 1.267-1.848 1.269h-1.98c-.054 0-.081-.027-.081-.083l-.004-5.54zM139.675 49.135c.255 0 .46-.072.615-.217.155-.147.232-.342.232-.588 0-.251-.077-.45-.232-.596-.155-.146-.36-.218-.615-.218h-1.183c-.031 0-.047.016-.047.05v1.518c0 .035.016.05.047.05h1.183zm.959 3.198c-.062 0-.101-.027-.124-.083l-1.063-2.226h-.955c-.031 0-.047.017-.047.052l.004 2.174c0 .056-.027.083-.081.083h-.801c-.054 0-.081-.027-.081-.083l-.004-5.54c0-.056.027-.084.082-.084h2.142c.255 0 .491.041.708.126.212.083.398.2.556.348.159.15.283.327.372.538.089.209.135.44.135.692 0 .375-.097.7-.286.973-.19.274-.445.474-.766.596l1.168 2.325c.015.027.019.053.004.076-.012.02-.035.033-.062.033h-.901zM144.393 51.536c.275 0 .499-.066.661-.197.17-.132.294-.315.368-.551.015-.05.03-.109.042-.176.012-.066.02-.151.027-.251.008-.1.016-.223.02-.366.007-.141.011-.313.011-.516 0-.201-.004-.373-.011-.516-.004-.142-.012-.263-.02-.364-.007-.1-.015-.186-.027-.253-.012-.066-.027-.126-.042-.176-.074-.234-.198-.418-.368-.55-.166-.131-.39-.197-.665-.197-.278 0-.499.066-.665.198-.166.131-.286.315-.364.549-.015.05-.03.11-.042.176-.016.067-.027.153-.035.253-.008.1-.012.222-.015.364-.004.143-.004.315-.004.516 0 .203 0 .375.004.516.003.143.007.265.015.366.008.1.019.185.035.25.012.068.027.126.042.177.078.236.198.42.364.551.17.131.391.197.669.197zm0 .89c-.479 0-.89-.116-1.234-.348-.34-.233-.584-.577-.727-1.029-.027-.089-.05-.18-.069-.269-.02-.089-.035-.193-.047-.31-.008-.117-.019-.257-.023-.415-.004-.16-.008-.352-.008-.576 0-.222.004-.414.008-.574.004-.16.015-.298.023-.416.012-.118.027-.22.047-.31.019-.09.042-.18.069-.268.14-.455.383-.797.723-1.029.345-.232.755-.348 1.234-.348.483 0 .893.116 1.238.348.34.232.583.574.727 1.029.027.089.046.178.065.268.02.09.035.192.047.31.012.118.019.257.023.416.008.16.008.352.008.574 0 .224 0 .416-.008.576-.004.158-.011.298-.023.416-.012.116-.027.22-.047.31-.019.088-.038.18-.065.268-.14.452-.383.796-.724 1.029-.344.232-.754.348-1.237.348zM147.475 46.708c0-.056.026-.084.081-.084h.75c.058 0 .105.028.139.084l2.258 3.937h.031v-3.937c0-.056.028-.084.082-.084h.707c.055 0 .086.028.086.084l.004 5.54c0 .055-.032.083-.086.083h-.738c-.062 0-.108-.028-.14-.084l-2.27-3.929h-.03l.003 3.93c0 .055-.027.083-.085.083h-.707c-.055 0-.081-.028-.081-.084l-.004-5.54zM152.75 46.708c0-.056.027-.084.081-.084h3.473c.054 0 .081.028.081.084v.72c0 .057-.027.086-.081.086h-2.545c-.031 0-.046.015-.046.05v1.392c0 .035.015.05.046.05h2.147c.054 0 .081.03.081.086v.72c0 .057-.027.084-.081.084h-2.147c-.031 0-.046.018-.046.05v1.445c0 .033.015.05.046.05h2.545c.054 0 .085.027.085.083v.723c0 .056-.027.084-.081.084h-3.473c-.054 0-.081-.028-.081-.084l-.004-5.54zM159.06 52.421c-.205.002-.406-.017-.603-.058-.193-.038-.383-.09-.557-.158-.178-.068-.34-.147-.491-.24-.147-.093-.279-.191-.387-.298-.042-.044-.046-.087-.016-.125l.503-.604c.035-.046.074-.048.112-.01.089.074.186.146.298.219.113.074.233.138.36.194.127.056.263.102.406.137.143.037.29.054.449.054.332 0 .587-.077.765-.232.182-.153.275-.35.275-.592 0-.207-.074-.375-.221-.506-.147-.132-.409-.227-.793-.283l-.29-.038c-.541-.08-.951-.252-1.241-.517-.286-.267-.429-.636-.429-1.111 0-.258.042-.494.128-.706.089-.213.212-.394.374-.546.163-.15.36-.266.592-.348.232-.08.491-.121.778-.123.348 0 .68.052.99.155.313.104.58.241.804.415.038.033.042.074.016.118l-.391.62c-.031.045-.07.055-.116.026-.228-.151-.445-.263-.657-.337-.213-.071-.438-.108-.67-.108-.282.002-.498.074-.649.217-.147.143-.225.325-.225.549 0 .195.078.36.228.491.155.131.418.224.794.279l.293.042c.538.08.947.251 1.23.516.283.265.425.644.425 1.137 0 .252-.046.487-.131.706-.085.217-.217.404-.391.56-.178.157-.398.281-.657.37-.259.091-.561.135-.905.135z" clip-rule="evenodd"/>
    <mask id="dwpeg8fata" width="15" height="5" x="24" y="49" maskUnits="userSpaceOnUse">
        <path fill="#fff" fill-rule="evenodd" d="M24.076 49.429h14.652v3.624H24.076v-3.624z" clip-rule="evenodd"/>
    </mask>
    <g mask="url(#dwpeg8fata)">
        <path fill="#fff" fill-rule="evenodd" d="M38.526 52.227c.32.11.24.585-.1.586-.145 0-.292-.01-.439-.028l-8.14-1.005c-.093-.011-.185.02-.251.086L28.5 52.964c-.101.1-.26.118-.38.04-.39-.256-.778-.523-1.161-.798-.987-.71-1.938-1.478-2.784-2.254-.253-.233.02-.636.333-.494 1.229.559 2.618.896 4.062 1.135 2.534.418 5.243.532 7.573.998.876.176 1.665.39 2.382.636z" clip-rule="evenodd"/>
    </g>
    <path fill="#fff" fill-rule="evenodd" d="M39.169 46.89c.33.327-.012.87-.453.725l-.027-.009c-.5-.164-1.05-.294-1.668-.402-.882-.154-1.904-.265-3.125-.371-5.342-.468-10.07-.417-14.72-2.032l-.027-.009c-1.607-.558-2.97-1.655-3.887-3.087l-.158-.248-2.242-3.5c-.218-.341.101-.769.491-.659.404.115.813.222 1.227.324 3.311.812 6.926 1.262 10.496 2.134 5.933 1.45 9.999 3.594 12.855 6.002.433.365.84.737 1.22 1.114l.018.018z" clip-rule="evenodd"/>
    <mask id="wbsw57pb9b" width="46" height="27" x="0" y="16" maskUnits="userSpaceOnUse">
        <path fill="#fff" fill-rule="evenodd" d="M0 16.105h45.147v26.474H0V16.105z" clip-rule="evenodd"/>
    </mask>
    <g mask="url(#wbsw57pb9b)">
        <path fill="#fff" fill-rule="evenodd" d="M45.099 42.125c.177.28-.17.592-.431.389-1.257-.977-2.785-1.75-4.683-2.396-7.58-2.576-20.315-3.755-30.188-9.968-1.032-.648-2.057-1.323-2.993-2.119-.205-.174-.719-.731-1.011-1.117-3.236-4.284-5.06-7.876-5.216-8.14-.17-.287-.668-1.567-.562-2.412.03-.238.318-.341.493-.176.373.35.754.685 1.145 1.009 6.486 5.369 15.476 7.317 25.654 11.774 11.502 5.037 14.816 8.452 17.792 13.156z" clip-rule="evenodd"/>
    </g>
    <path fill="#fff" fill-rule="evenodd" d="M46.131 35.452c.137.298-.264.55-.472.296-1.82-2.227-4.18-3.876-7.521-5.662-12.28-6.563-25.739-8.03-35.614-18.412-.122-.128-.243-.257-.364-.388-.454-.492-.322-1.29.274-1.593.489-.25 1.04-.389 1.62-.389l.095.001 1.47.039c.819.021 1.633-.129 2.39-.44.167-.07.228-.275.124-.423l-.444-.63c-.159-.226-.29-.47-.391-.722-.331-.823.603-1.578 1.339-1.083l.051.034c9.703 6.52 20.704 11.164 29.563 19.005 3.996 3.537 6.324 6.976 7.88 10.367z" clip-rule="evenodd"/>
    <path fill="#fff" fill-rule="evenodd" d="M58.551 44.245L48.39 46.812c-.8.202-1.498-.58-1.205-1.352l.01-.023c.542-1.427 1.191-2.91 1.867-4.474 2.699-6.233-.098-10.337-3.745-14.238-8.684-9.293-21.795-16.013-32.554-23.74-.679-.487-.526-1.538.264-1.812l2.482-.86c.38-.133.777-.198 1.172-.198.672 0 1.34.19 1.922.56l14.456 9.21c.13.083.276.135.43.153l6.256.742c1.003.119 1.904.656 2.487 1.47l11.696 15.746c.175.235.441.384.733.41l6.476.562c.05.004.101.01.151.016.353.046.654.281.797.606.691 1.57 1.128 3.233 1.218 4.991.188 3.72-1.623 7.031-4.326 9.44-.121.109-.268.184-.425.224z" clip-rule="evenodd"/>
</svg>
