<svg xmlns="http://www.w3.org/2000/svg" width="321.6" height="75.2" viewBox="0 0 321.6 75.2"><g transform="translate(-522.21 -431.17)"><path d="M828.67,461.96h-.13a15.139,15.139,0,0,1-15.14-15.14h0a15.139,15.139,0,0,1,15.14-15.14h.13a15.14,15.14,0,0,1,15.14,15.14h0A15.14,15.14,0,0,1,828.67,461.96Z" fill="#fff"/><path d="M738,506.22h-.13a15.14,15.14,0,0,1-15.14-15.14h0a15.139,15.139,0,0,1,15.14-15.14H738a15.139,15.139,0,0,1,15.14,15.14h0A15.14,15.14,0,0,1,738,506.22Z" fill="#fff"/><path d="M799.81,446.465h0A15.208,15.208,0,0,1,784.6,461.67H737.94a15.208,15.208,0,0,1-15.21-15.205h0a15.208,15.208,0,0,1,15.21-15.2H784.6A15.208,15.208,0,0,1,799.81,446.465Z" fill="#fff"/><path d="M843.81,491.075h0a15.208,15.208,0,0,1-15.21,15.2H781.94a15.208,15.208,0,0,1-15.21-15.2h0a15.208,15.208,0,0,1,15.21-15.205H828.6A15.208,15.208,0,0,1,843.81,491.075Z" fill="#fff"/><path d="M683.25,433.55,657.7,439.1l.38,5.16,25.56-5.44Z" fill="#fff"/><path d="M687.09,456.94V480H682c-3.2,0-4.81-1.88-4.81-5.63V460.53h-10.6v15.58c0,1.63-.56,2.69-1.67,3.18a10,10,0,0,1-4,.74,5.911,5.911,0,0,1-4.45-1.51A5.759,5.759,0,0,1,655,474.4V460.53H644.6v15.58a5.629,5.629,0,0,1-.33,2.16,2.411,2.411,0,0,1-1.06,1.19,4.578,4.578,0,0,1-1.92.48q-1.18.09-3,.09h-9.71v-5.22q0-8.9-4.32-13.91t-12.89-5a18.4,18.4,0,0,0-5.3.78,20.339,20.339,0,0,0-5,2.24,22.363,22.363,0,0,0-4.33,3.51,20.316,20.316,0,0,0-3.26,4.48V431.17H583V480H549.25a8.705,8.705,0,0,1-2.16-.29,5.471,5.471,0,0,1-2-.94,4.692,4.692,0,0,1-1.38-1.71,5.907,5.907,0,0,1-.53-2.69V460.53H532.61v24.31a40.392,40.392,0,0,1-.28,5.18,8.094,8.094,0,0,1-1.27,3.59,5.57,5.57,0,0,1-2.93,2.08,18.852,18.852,0,0,1-5.3.73v9.95a38.323,38.323,0,0,0,9-1.06,14.22,14.22,0,0,0,6.23-3.26,14,14,0,0,0,3.7-6,31.085,31.085,0,0,0,1.31-9.25,6.449,6.449,0,0,0,3.27,2.12c.59.15,1.11.27,1.58.35H548a.964.964,0,0,0,.17,0,7.459,7.459,0,0,0,1,.1h89.07a47.787,47.787,0,0,0,9-.7,9.258,9.258,0,0,0,5.71-3.55,11.2,11.2,0,0,0,4,2.9,16.087,16.087,0,0,0,7,1.35c.86,0,1.78,0,2.73-.09a13.539,13.539,0,0,0,2.89-.48,11.481,11.481,0,0,0,2.86-1.27,10.238,10.238,0,0,0,2.61-2.41,9.38,9.38,0,0,0,3.75,3.23,16.134,16.134,0,0,0,6.52,1h12.48V456.94ZM618,480H594a26.455,26.455,0,0,1,2.73-5.51,24.393,24.393,0,0,1,3.79-4.53,17.129,17.129,0,0,1,4.57-3.05,11.744,11.744,0,0,1,4.9-1.11,9.135,9.135,0,0,1,3.79.7,6.7,6.7,0,0,1,2.45,1.87,7.37,7.37,0,0,1,1.34,2.82,14.866,14.866,0,0,1,.41,3.59Z" fill="#fff"/><path d="M682.62,433.55l-25.56,5.55.38,5.16L683,438.82Z" fill="#fff"/><path d="M686.45,456.94V480H681.4q-4.811,0-4.82-5.63V460.53H666v15.58c0,1.63-.56,2.69-1.67,3.18a10,10,0,0,1-4,.74,5.874,5.874,0,0,1-4.44-1.51,5.77,5.77,0,0,1-1.43-4.12V460.53H644v15.58a5.63,5.63,0,0,1-.33,2.16,2.367,2.367,0,0,1-1.06,1.19,4.564,4.564,0,0,1-1.91.48q-1.185.09-3,.09H628v-5.22q0-8.9-4.32-13.91t-12.89-5a18.4,18.4,0,0,0-5.3.78,20.339,20.339,0,0,0-5,2.24,22,22,0,0,0-4.32,3.51,20,20,0,0,0-3.27,4.48V431.17H582.38V480H548.62a8.684,8.684,0,0,1-2.17-.29,5.354,5.354,0,0,1-2-.94,4.713,4.713,0,0,1-1.39-1.71,6,6,0,0,1-.53-2.69V460.53H532v24.31a40.213,40.213,0,0,1-.29,5.18,8.214,8.214,0,0,1-1.26,3.59,5.6,5.6,0,0,1-2.94,2.08,18.774,18.774,0,0,1-5.3.73v9.95a38.317,38.317,0,0,0,9-1.06,14.22,14.22,0,0,0,6.23-3.26,14,14,0,0,0,3.7-6,31.387,31.387,0,0,0,1.32-9.25,6.377,6.377,0,0,0,3.26,2.12c.59.15,1.11.27,1.58.35h0a.964.964,0,0,0,.17,0,7.46,7.46,0,0,0,1,.1h89.08a47.787,47.787,0,0,0,9-.7,9.228,9.228,0,0,0,5.71-3.55,11.171,11.171,0,0,0,4,2.9,16,16,0,0,0,7,1.35q1.309,0,2.73-.09a13.631,13.631,0,0,0,2.9-.48,11.4,11.4,0,0,0,2.85-1.27,9.921,9.921,0,0,0,2.61-2.41,9.38,9.38,0,0,0,3.75,3.23,16.185,16.185,0,0,0,6.53,1h12.48V456.94ZM617.37,480h-24a26.957,26.957,0,0,1,2.73-5.51,23.988,23.988,0,0,1,3.8-4.53,16.919,16.919,0,0,1,4.56-3.05,11.825,11.825,0,0,1,4.9-1.11,9.135,9.135,0,0,1,3.79.7,6.627,6.627,0,0,1,2.45,1.87,7.37,7.37,0,0,1,1.34,2.82,14.866,14.866,0,0,1,.41,3.59Z" fill="#fff"/><path d="M683.25,433.55,657.7,439.1l.38,5.16,25.56-5.44Z" fill="#fff"/><path d="M687.09,456.94V480H682c-3.2,0-4.81-1.88-4.81-5.63V460.53h-10.6v15.58c0,1.63-.56,2.69-1.67,3.18a10,10,0,0,1-4,.74,5.911,5.911,0,0,1-4.45-1.51A5.759,5.759,0,0,1,655,474.4V460.53H644.6v15.58a5.629,5.629,0,0,1-.33,2.16,2.411,2.411,0,0,1-1.06,1.19,4.578,4.578,0,0,1-1.92.48q-1.18.09-3,.09h-9.71v-5.22q0-8.9-4.32-13.91t-12.89-5a18.4,18.4,0,0,0-5.3.78,20.339,20.339,0,0,0-5,2.24,22.363,22.363,0,0,0-4.33,3.51,20.316,20.316,0,0,0-3.26,4.48V431.17H583V480H549.25a8.705,8.705,0,0,1-2.16-.29,5.471,5.471,0,0,1-2-.94,4.692,4.692,0,0,1-1.38-1.71,5.907,5.907,0,0,1-.53-2.69V460.53H532.61v24.31a40.392,40.392,0,0,1-.28,5.18,8.094,8.094,0,0,1-1.27,3.59,5.57,5.57,0,0,1-2.93,2.08,18.852,18.852,0,0,1-5.3.73v9.95a38.323,38.323,0,0,0,9-1.06,14.22,14.22,0,0,0,6.23-3.26,14,14,0,0,0,3.7-6,31.085,31.085,0,0,0,1.31-9.25,6.449,6.449,0,0,0,3.27,2.12c.59.15,1.11.27,1.58.35H548a.964.964,0,0,0,.17,0,7.459,7.459,0,0,0,1,.1h89.07a47.787,47.787,0,0,0,9-.7,9.258,9.258,0,0,0,5.71-3.55,11.2,11.2,0,0,0,4,2.9,16.087,16.087,0,0,0,7,1.35c.86,0,1.78,0,2.73-.09a13.539,13.539,0,0,0,2.89-.48,11.481,11.481,0,0,0,2.86-1.27,10.238,10.238,0,0,0,2.61-2.41,9.38,9.38,0,0,0,3.75,3.23,16.134,16.134,0,0,0,6.52,1h12.48V456.94ZM618,480H594a26.455,26.455,0,0,1,2.73-5.51,24.393,24.393,0,0,1,3.79-4.53,17.129,17.129,0,0,1,4.57-3.05,11.744,11.744,0,0,1,4.9-1.11,9.135,9.135,0,0,1,3.79.7,6.7,6.7,0,0,1,2.45,1.87,7.37,7.37,0,0,1,1.34,2.82,14.866,14.866,0,0,1,.41,3.59Z" fill="#fff"/></g></svg>