<svg xmlns="http://www.w3.org/2000/svg" viewBox="0 0 509.48 159.02"><defs><style>.cls-1,.cls-2{fill:#fff;}.cls-1{fill-rule:evenodd;}</style></defs><g id="Layer_2" data-name="Layer 2"><g id="Layer_1-2" data-name="Layer 1"><path class="cls-1" d="M313.61,115.93l-28.25-9.25c-1.95,3.45-2.23,6-4.55,9a28.16,28.16,0,0,1-7.19,6.84c-6,3.85-14.46,5.44-22.89,3.64-14.45-3.1-23.55-15-23.94-32-.41-17.66,8.05-30.24,22.06-33.86,17.88-4.62,31.41,4.83,34.92,19l29.15-9.54c-2.84-14.38-14.13-26.3-23.64-32-36.75-22.19-95.09-1-95,55.41.12,55.61,59.43,77.19,95.19,55.11A58.14,58.14,0,0,0,304.3,135c3.32-4.26,8.28-12.17,9.31-19.07"/><path class="cls-1" d="M27.77,113.72,0,119.55c2,24.5,29.18,37.7,53.55,37.1,13.64-.34,26-4.83,34-11.31,18.36-15,18.24-45.89-6-58.87-21-11.23-46.21-5.89-48.48-19C30.53,52.69,59,48.54,68.8,61.79c2.24,3,1.94,4.89,3.44,8l26.35-6a2.42,2.42,0,0,0,.39-.2C97.39,40,68.5,27.13,44,29.53c-45.31,4.44-56,54.7-17.67,70.56,11.08,4.58,24.64,5.45,35.08,9.6,13.72,5.45,9.82,20.46-6.3,21.93-14.68,1.32-25.68-5.09-27.33-17.9"/><path class="cls-1" d="M152.29,64.1l-32.17,0c-.59,13-.06,27.32-.06,40.46s-.91,25.86,5.17,35.88c12.54,20.67,45.68,19.31,59.09,9.16l.2-26.39c-6.49,3-10.89,5.62-20.05,4.41-7.85-1-11.49-5.19-12.12-13.26-.53-6.95-.12-40.85-.06-50.28"/><polygon class="cls-1" points="152.29 32.85 152.28 0.03 120.07 0 120.06 32.79 152.29 32.85"/><polygon class="cls-1" points="152.29 64.1 184.52 64.11 184.52 32.86 152.29 32.85 152.29 64.1"/><path class="cls-2" d="M391.4,29.79a2.32,2.32,0,0,0,1.7-.52,2.63,2.63,0,0,0,.52-1.88V3a.4.4,0,0,1,.45-.45H397a.4.4,0,0,1,.45.45V26.71A2.62,2.62,0,0,0,398.53,29a5.15,5.15,0,0,0,3,.77h.5a2,2,0,0,1,1.36.39,1.63,1.63,0,0,1,.45,1.29c0,.79-.14,1.29-.43,1.52a2.22,2.22,0,0,1-1.38.34h-.95a5.29,5.29,0,0,1-2.54-.59A3.9,3.9,0,0,1,396.83,31a3.8,3.8,0,0,1-1.75,1.77,6.8,6.8,0,0,1-3.06.59H370.21A5.23,5.23,0,0,1,366.13,32a6.4,6.4,0,0,1-1.22-4.33V18.14a.4.4,0,0,1,.45-.45h2.9a.4.4,0,0,1,.45.45v9.25a2.63,2.63,0,0,0,.52,1.88,2.26,2.26,0,0,0,1.66.52Zm-9.25-11.11c.36,0,.59-.08.68-.23a1.46,1.46,0,0,0,.14-.73v-.91c0-.76-.41-1.13-1.22-1.13H379.3a.56.56,0,0,1-.63-.63v-.77a.64.64,0,0,1,.07-.34.78.78,0,0,1,.16-.2l3.58-4.26a.52.52,0,0,1,.43-.2.49.49,0,0,1,.29.11l.91.77a.43.43,0,0,1,.16.43,1.55,1.55,0,0,1-.16.34l-2.31,2.72h.73c1.78,0,2.67,1.06,2.67,3.17v.82a3.59,3.59,0,0,1-.61,2.45,2.73,2.73,0,0,1-2,.63h-5.12a.4.4,0,0,1-.45-.45V19.14a.4.4,0,0,1,.45-.45h4.7Z"/><path class="cls-2" d="M402.05,33.33a1.52,1.52,0,0,1-1.22-.39,2.16,2.16,0,0,1-.32-1.34,2.48,2.48,0,0,1,.29-1.47,1.65,1.65,0,0,1,1.25-.34h5a2.16,2.16,0,0,1,1.36.36,1.6,1.6,0,0,1,.45,1.31,2,2,0,0,1-.43,1.5,2.15,2.15,0,0,1-1.38.36h-5Z"/><path class="cls-2" d="M407.09,33.33a1.52,1.52,0,0,1-1.22-.39,2.16,2.16,0,0,1-.32-1.34,2.48,2.48,0,0,1,.29-1.47,1.65,1.65,0,0,1,1.25-.34h5a2.16,2.16,0,0,1,1.36.36,1.6,1.6,0,0,1,.45,1.31,2,2,0,0,1-.43,1.5,2.15,2.15,0,0,1-1.38.36h-5Z"/><path class="cls-2" d="M412.12,33.33a1.52,1.52,0,0,1-1.22-.39,2.16,2.16,0,0,1-.32-1.34,2.48,2.48,0,0,1,.29-1.47,1.65,1.65,0,0,1,1.25-.34h5a2.16,2.16,0,0,1,1.36.36,1.6,1.6,0,0,1,.45,1.31,2,2,0,0,1-.43,1.5,2.15,2.15,0,0,1-1.38.36h-5Z"/><path class="cls-2" d="M417.11,33.33a2.39,2.39,0,0,1-1.36-.32,1.46,1.46,0,0,1-.45-1.27,2.08,2.08,0,0,1,.43-1.54,2,2,0,0,1,1.38-.41h3.13a2.28,2.28,0,0,0,1.66-.52,2.63,2.63,0,0,0,.52-1.88V15.24a.4.4,0,0,1,.45-.45h2.9a.4.4,0,0,1,.45.45V27.62A6.43,6.43,0,0,1,425,32a5.23,5.23,0,0,1-4.08,1.38Zm1.95,8.43a.4.4,0,0,1-.45-.45V38a.4.4,0,0,1,.45-.45h3.08a.4.4,0,0,1,.45.45v3.31a.4.4,0,0,1-.45.45Zm5.53,0a.4.4,0,0,1-.45-.45V38a.4.4,0,0,1,.45-.45h3.08a.4.4,0,0,1,.45.45v3.31a.4.4,0,0,1-.45.45Z"/><path class="cls-2" d="M430.08,42.35a.4.4,0,0,1-.45-.45V39.27a.4.4,0,0,1,.45-.45h1c2.45,0,3.67-1.29,3.67-3.85V15.24a.4.4,0,0,1,.45-.45h2.9a.4.4,0,0,1,.45.45V26.71A2.62,2.62,0,0,0,439.7,29a5.15,5.15,0,0,0,3,.77h.5a2,2,0,0,1,1.36.39,1.63,1.63,0,0,1,.45,1.29c0,.79-.14,1.29-.43,1.52a2.22,2.22,0,0,1-1.38.34h-.95a4.57,4.57,0,0,1-3.63-1.45v3a7.67,7.67,0,0,1-1.86,5.58,7.26,7.26,0,0,1-5.44,1.9Z"/><path class="cls-2" d="M443.23,33.33a1.52,1.52,0,0,1-1.22-.39,2.16,2.16,0,0,1-.32-1.34,2.48,2.48,0,0,1,.29-1.47,1.65,1.65,0,0,1,1.25-.34h5a2.16,2.16,0,0,1,1.36.36,1.6,1.6,0,0,1,.45,1.31,2,2,0,0,1-.43,1.5,2.15,2.15,0,0,1-1.38.36h-5Z"/><path class="cls-2" d="M448.26,33.33a1.52,1.52,0,0,1-1.22-.39,2.16,2.16,0,0,1-.32-1.34,2.48,2.48,0,0,1,.29-1.47,1.65,1.65,0,0,1,1.25-.34h5a2.16,2.16,0,0,1,1.36.36,1.6,1.6,0,0,1,.45,1.31,2,2,0,0,1-.43,1.5,2.15,2.15,0,0,1-1.38.36h-5Z"/><path class="cls-2" d="M467.39,33.33a5.29,5.29,0,0,1-2.54-.59A3.9,3.9,0,0,1,463.17,31q-1.14,2.36-4.72,2.36h-4.9a2.39,2.39,0,0,1-1.36-.32,1.46,1.46,0,0,1-.45-1.27,2.08,2.08,0,0,1,.43-1.54,2,2,0,0,1,1.38-.41h4.22a2.26,2.26,0,0,0,1.66-.52,2.63,2.63,0,0,0,.52-1.88V19.14a.4.4,0,0,1,.45-.45h2.9a.4.4,0,0,1,.45.45v7.57A2.63,2.63,0,0,0,464.84,29a5,5,0,0,0,2.9.77h1.13a2.28,2.28,0,0,0,1.66-.52,2.63,2.63,0,0,0,.52-1.88V19.14a.4.4,0,0,1,.45-.45h2.9a.4.4,0,0,1,.45.45v7.75A2.43,2.43,0,0,0,476,29.07a5.41,5.41,0,0,0,2.95.73h1a2.26,2.26,0,0,0,1.66-.52,2.63,2.63,0,0,0,.52-1.88V15.25a.4.4,0,0,1,.45-.45h2.9a.4.4,0,0,1,.45.45V26.72A2.62,2.62,0,0,0,487.06,29a5.15,5.15,0,0,0,3,.77h.5a2,2,0,0,1,1.36.39,1.63,1.63,0,0,1,.45,1.29c0,.79-.14,1.29-.43,1.52a2.22,2.22,0,0,1-1.38.34h-.95a5.29,5.29,0,0,1-2.54-.59A3.9,3.9,0,0,1,485.36,31q-1.14,2.35-4.72,2.36h-2.18a5.29,5.29,0,0,1-2.54-.59A4,4,0,0,1,474.24,31q-1.14,2.35-4.72,2.36h-2.13Zm1.18-23a.4.4,0,0,1-.45-.45V6.53a.4.4,0,0,1,.45-.45h3.08a.4.4,0,0,1,.45.45V9.84a.4.4,0,0,1-.45.45ZM471.39,5a.4.4,0,0,1-.45-.45V1.22a.4.4,0,0,1,.45-.45h3.08a.4.4,0,0,1,.45.45V4.53a.4.4,0,0,1-.45.45Zm2.72,5.31a.4.4,0,0,1-.45-.45V6.53a.4.4,0,0,1,.45-.45h3.08a.4.4,0,0,1,.45.45V9.84a.4.4,0,0,1-.45.45Z"/><path class="cls-2" d="M490.25,33.33a2.39,2.39,0,0,1-1.36-.32,1.46,1.46,0,0,1-.45-1.27,2.08,2.08,0,0,1,.43-1.54,2,2,0,0,1,1.38-.41h2.86a2.26,2.26,0,0,0,1.66-.52,2.63,2.63,0,0,0,.52-1.88V3a.4.4,0,0,1,.45-.45h2.9a.4.4,0,0,1,.45.45V27.62A6.43,6.43,0,0,1,497.87,32a5.23,5.23,0,0,1-4.08,1.38Z"/><path class="cls-2" d="M509.25,32.87a.4.4,0,0,1-.45.45h-2.9a.4.4,0,0,1-.45-.45V2.94a.4.4,0,0,1,.45-.45h2.9a.4.4,0,0,1,.45.45Z"/><path class="cls-2" d="M367.73,77.54c.12-.21.33-.23.63-.05l2.49,1.36a.38.38,0,0,1,.14.59,18.59,18.59,0,0,0-1.56,3.13,10.53,10.53,0,0,0-.75,3.9,7.08,7.08,0,0,0,.66,3.24,5.54,5.54,0,0,0,1.7,2,7,7,0,0,0,2.27,1.07,9.67,9.67,0,0,0,2.4.32,7.35,7.35,0,0,0,4.76-1.5q1.86-1.5,1.86-4.85V73.55a.4.4,0,0,1,.45-.45h2.9a.4.4,0,0,1,.45.45v7.57a2.62,2.62,0,0,0,1.11,2.31,5.15,5.15,0,0,0,3,.77h.18a2,2,0,0,1,1.36.39,1.63,1.63,0,0,1,.45,1.29c0,.79-.14,1.29-.43,1.52a2.22,2.22,0,0,1-1.38.34h-.63a4.57,4.57,0,0,1-3.63-1.45v.54a9.67,9.67,0,0,1-2.74,7.3q-2.75,2.63-7.91,2.63a13.87,13.87,0,0,1-4.42-.66,9.2,9.2,0,0,1-3.36-1.93,8.71,8.71,0,0,1-2.15-3.11,11,11,0,0,1-.77-4.24,15.19,15.19,0,0,1,.88-5.15A17.48,17.48,0,0,1,367.73,77.54ZM375.48,72a.4.4,0,0,1-.45-.45V68.2a.4.4,0,0,1,.45-.45h3.08a.4.4,0,0,1,.45.45v3.31a.4.4,0,0,1-.45.45Z"/><path class="cls-2" d="M398.42,69.19h4a8.21,8.21,0,0,1,5.65,2q2.2,2,2.2,6.12V80c0,.24,0,.48,0,.73s0,.48,0,.73a2.49,2.49,0,0,0,1.2,2.09,5.48,5.48,0,0,0,2.88.68h.5a2,2,0,0,1,1.36.39,1.63,1.63,0,0,1,.45,1.29c0,.79-.14,1.29-.43,1.52a2.22,2.22,0,0,1-1.38.34h-1a5.82,5.82,0,0,1-2.75-.66,3.59,3.59,0,0,1-1.75-1.93,4.29,4.29,0,0,1-2.15,2,9.21,9.21,0,0,1-3.5.57H390.42a1.6,1.6,0,0,1-1.81-1.81c0-.76.14-1.23.43-1.43a2.49,2.49,0,0,1,1.38-.29h11.93a8.52,8.52,0,0,0,2-.2,2.28,2.28,0,0,0,1.18-.68,2.56,2.56,0,0,0,.54-1.25,11.58,11.58,0,0,0,.14-2V77.33q0-4.58-5.17-4.58h-7.3a.4.4,0,0,1-.45-.45V69.76a.68.68,0,0,1,.16-.43,3.29,3.29,0,0,1,.25-.29l9.93-11.7a.43.43,0,0,1,.59-.14L406.44,59a.45.45,0,0,1,.18.63Z"/><path class="cls-2" d="M428.49,88.06a10.59,10.59,0,0,1-3.76-.61A6.79,6.79,0,0,1,422,85.52a4.11,4.11,0,0,1-2.45,1.84,11,11,0,0,1-2.77.39h-1.95A1.6,1.6,0,0,1,413,85.94c0-.76.14-1.23.43-1.43a2.49,2.49,0,0,1,1.38-.29h2.27a2.78,2.78,0,0,0,1-.2,2.32,2.32,0,0,0,.91-.68,3.53,3.53,0,0,0,.66-1.27,6.56,6.56,0,0,0,.25-2c0-.3-.05-.6-.05-.88v-.93c0-3.48.77-6,2.31-7.55a9.79,9.79,0,0,1,12.7,0c1.54,1.56,2.31,4.07,2.31,7.55,0,.33,0,.67,0,1s0,.65-.07.95a4.44,4.44,0,0,0,.93,3.15,2.71,2.71,0,0,0,1.88.84h1.32a2,2,0,0,1,1.36.39,1.63,1.63,0,0,1,.45,1.29c0,.79-.14,1.29-.43,1.52a2.22,2.22,0,0,1-1.38.34h-1a13.19,13.19,0,0,1-1.36-.07,6.48,6.48,0,0,1-1.43-.29,5.22,5.22,0,0,1-1.34-.66A3.8,3.8,0,0,1,435,85.59a6.48,6.48,0,0,1-2.77,1.9A11.43,11.43,0,0,1,428.49,88.06Zm0-16.14a4.19,4.19,0,0,0-3.7,1.68,8.16,8.16,0,0,0-1.16,4.67A7.75,7.75,0,0,0,424.79,83a5.31,5.31,0,0,0,7.4,0,7.82,7.82,0,0,0,1.16-4.76,8.14,8.14,0,0,0-1.16-4.67A4.17,4.17,0,0,0,428.49,71.92Z"/><path class="cls-2" d="M454.83,88.06a10.59,10.59,0,0,1-3.76-.61,6.79,6.79,0,0,1-2.77-1.93,4.11,4.11,0,0,1-2.45,1.84,11,11,0,0,1-2.77.39h-1.95a1.6,1.6,0,0,1-1.81-1.81c0-.76.14-1.23.43-1.43a2.49,2.49,0,0,1,1.38-.29h2.27a2.78,2.78,0,0,0,1-.2,2.32,2.32,0,0,0,.91-.68,3.53,3.53,0,0,0,.66-1.27,6.56,6.56,0,0,0,.25-2c0-.3-.05-.6-.05-.88v-.93c0-3.48.77-6,2.31-7.55a9.79,9.79,0,0,1,12.7,0c1.54,1.56,2.31,4.07,2.31,7.55,0,.33,0,.67,0,1s0,.65-.07.95a4.44,4.44,0,0,0,.93,3.15,2.71,2.71,0,0,0,1.88.84h1.32a2,2,0,0,1,1.36.39,1.63,1.63,0,0,1,.45,1.29c0,.79-.14,1.29-.43,1.52a2.22,2.22,0,0,1-1.38.34h-1a13.19,13.19,0,0,1-1.36-.07,6.48,6.48,0,0,1-1.43-.29,5.22,5.22,0,0,1-1.34-.66,3.8,3.8,0,0,1-1.09-1.16,6.48,6.48,0,0,1-2.77,1.9A11.43,11.43,0,0,1,454.83,88.06Zm0-16.14a4.19,4.19,0,0,0-3.7,1.68A8.16,8.16,0,0,0,450,78.27,7.75,7.75,0,0,0,451.13,83a5.31,5.31,0,0,0,7.4,0,7.82,7.82,0,0,0,1.16-4.76,8.14,8.14,0,0,0-1.16-4.67A4.14,4.14,0,0,0,454.83,71.92Z"/><path class="cls-2" d="M467.49,87.74a2.39,2.39,0,0,1-1.36-.32,1.46,1.46,0,0,1-.45-1.27,2.08,2.08,0,0,1,.43-1.54,2,2,0,0,1,1.38-.41h2.86a2.26,2.26,0,0,0,1.66-.52,2.63,2.63,0,0,0,.52-1.88V57.36a.4.4,0,0,1,.45-.45h2.9a.4.4,0,0,1,.45.45V82a6.43,6.43,0,0,1-1.22,4.33c-.81.92-2.18,1.38-4.08,1.38Z"/><path class="cls-2" d="M486.49,87.29a.4.4,0,0,1-.45.45h-2.9a.4.4,0,0,1-.45-.45V57.36a.4.4,0,0,1,.45-.45H486a.4.4,0,0,1,.45.45Z"/><path class="cls-2" d="M496,96.76a.4.4,0,0,1-.45-.45V93.68a.4.4,0,0,1,.45-.45h5.44a6.91,6.91,0,0,0,1.68-.2,3.47,3.47,0,0,0,1.34-.68,3.1,3.1,0,0,0,.88-1.32,6,6,0,0,0,.32-2.11V87.74h-4.85a12.67,12.67,0,0,1-3.61-.48,6.37,6.37,0,0,1-4.46-4.37,14,14,0,0,1-.59-4.35,13.63,13.63,0,0,1,.68-4.51,8.62,8.62,0,0,1,1.88-3.17A7.68,7.68,0,0,1,497.51,69a9.33,9.33,0,0,1,3.4-.61,8.36,8.36,0,0,1,6.3,2.34c1.51,1.56,2.27,4.07,2.27,7.55V88.84a10.25,10.25,0,0,1-.57,3.63,6.11,6.11,0,0,1-4.06,3.86,10.85,10.85,0,0,1-3.22.45H496Zm4.9-24.84a4.24,4.24,0,0,0-3.63,1.81A8,8,0,0,0,496,78.54q0,3.22,1.29,4.44a5.36,5.36,0,0,0,3.83,1.22h4.58V78.26a8.4,8.4,0,0,0-1.11-4.67A4,4,0,0,0,500.91,71.92Z"/><path class="cls-2" d="M381.38,135.4c1,.36,1.9.73,2.81,1.11s1.79.73,2.65,1a21.84,21.84,0,0,0,2.56.77,11.22,11.22,0,0,0,2.58.29h3.67a2.39,2.39,0,0,1,1.36.32,1.46,1.46,0,0,1,.45,1.27,2.08,2.08,0,0,1-.43,1.54,2,2,0,0,1-1.39.41H392.4a7.31,7.31,0,0,1,.54,1.2,5.19,5.19,0,0,1,.31,1.84,5.61,5.61,0,0,1-.43,2.15,5.09,5.09,0,0,1-1.43,1.93,7.42,7.42,0,0,1-2.63,1.38,13.44,13.44,0,0,1-4,.52H374.19q-5.29,0-8.06-2.65a9.62,9.62,0,0,1-2.76-7.28,15.19,15.19,0,0,1,.88-5.15,17.64,17.64,0,0,1,2.06-4.15c.12-.21.33-.23.63,0l2.49,1.36a.38.38,0,0,1,.14.59A18.59,18.59,0,0,0,368,137a10.53,10.53,0,0,0-.75,3.9,7.28,7.28,0,0,0,.61,3.15,5.32,5.32,0,0,0,1.66,2.06,6.86,6.86,0,0,0,2.38,1.11,11.31,11.31,0,0,0,2.83.34h10a6.44,6.44,0,0,0,3.79-.82,2.4,2.4,0,0,0,1.07-1.95,2.55,2.55,0,0,0-.61-1.72,5.87,5.87,0,0,0-1.81-1.34,26.36,26.36,0,0,0-3-1.25c-1.19-.42-2.56-.92-4.1-1.5a.38.38,0,0,1-.27-.54l1-2.72A.38.38,0,0,1,381.38,135.4ZM373.94,159a.4.4,0,0,1-.45-.45v-3.31a.4.4,0,0,1,.45-.45H377a.4.4,0,0,1,.45.45v3.31a.4.4,0,0,1-.45.45Zm5.53,0a.4.4,0,0,1-.45-.45v-3.31a.4.4,0,0,1,.45-.45h3.08a.4.4,0,0,1,.45.45v3.31a.4.4,0,0,1-.45.45Z"/><path class="cls-2" d="M395.7,142.16a1.52,1.52,0,0,1-1.22-.39,2.16,2.16,0,0,1-.32-1.34,2.48,2.48,0,0,1,.29-1.47,1.65,1.65,0,0,1,1.25-.34h5a2.16,2.16,0,0,1,1.36.36,1.6,1.6,0,0,1,.45,1.31,2,2,0,0,1-.43,1.5,2.09,2.09,0,0,1-1.38.36h-5Z"/><path class="cls-2" d="M400.74,142.16a1.52,1.52,0,0,1-1.22-.39,2.16,2.16,0,0,1-.32-1.34,2.48,2.48,0,0,1,.29-1.47,1.65,1.65,0,0,1,1.25-.34h5a2.16,2.16,0,0,1,1.36.36,1.6,1.6,0,0,1,.45,1.31,2,2,0,0,1-.43,1.5,2.09,2.09,0,0,1-1.38.36h-5Z"/><path class="cls-2" d="M419.42,142.47a10.59,10.59,0,0,1-3.76-.61,6.79,6.79,0,0,1-2.77-1.93,4.11,4.11,0,0,1-2.45,1.84,11,11,0,0,1-2.77.39h-1.95a1.6,1.6,0,0,1-1.81-1.81c0-.76.14-1.23.43-1.43a2.49,2.49,0,0,1,1.38-.29H408a2.78,2.78,0,0,0,1-.2,2.32,2.32,0,0,0,.91-.68,3.53,3.53,0,0,0,.66-1.27,6.56,6.56,0,0,0,.25-2c0-.3-.05-.6-.05-.88v-.93c0-3.48.77-6,2.31-7.55a9.82,9.82,0,0,1,12.7,0c1.54,1.56,2.31,4.07,2.31,7.55,0,.33,0,.67,0,1s0,.65-.07,1a4.44,4.44,0,0,0,.93,3.15,2.71,2.71,0,0,0,1.88.84h1.32a2,2,0,0,1,1.36.39,1.63,1.63,0,0,1,.45,1.29c0,.79-.14,1.29-.43,1.52a2.22,2.22,0,0,1-1.38.34h-1a13.19,13.19,0,0,1-1.36-.07,6.48,6.48,0,0,1-1.43-.29,5.22,5.22,0,0,1-1.34-.66A3.8,3.8,0,0,1,425.9,140a6.48,6.48,0,0,1-2.77,1.9A11.16,11.16,0,0,1,419.42,142.47Zm0-16.14a4.19,4.19,0,0,0-3.7,1.68,8.14,8.14,0,0,0-1.16,4.67,7.75,7.75,0,0,0,1.16,4.76,5.31,5.31,0,0,0,7.4,0,7.82,7.82,0,0,0,1.16-4.76,8.14,8.14,0,0,0-1.16-4.67A4.19,4.19,0,0,0,419.42,126.33Z"/><path class="cls-2" d="M432.12,142.16a1.52,1.52,0,0,1-1.22-.39,2.16,2.16,0,0,1-.32-1.34,2.48,2.48,0,0,1,.29-1.47,1.65,1.65,0,0,1,1.25-.34h5a2.16,2.16,0,0,1,1.36.36,1.6,1.6,0,0,1,.45,1.31,2,2,0,0,1-.43,1.5,2.09,2.09,0,0,1-1.38.36h-5Z"/><path class="cls-2" d="M437.15,142.16a1.52,1.52,0,0,1-1.22-.39,2.16,2.16,0,0,1-.32-1.34,2.48,2.48,0,0,1,.29-1.47,1.65,1.65,0,0,1,1.25-.34h5a2.16,2.16,0,0,1,1.36.36,1.6,1.6,0,0,1,.45,1.31,2,2,0,0,1-.43,1.5,2.09,2.09,0,0,1-1.38.36h-5Z"/><path class="cls-2" d="M442.77,142.16a2.2,2.2,0,0,1-1.38-.34,2,2,0,0,1-.43-1.52,1.61,1.61,0,0,1,.45-1.29,2,2,0,0,1,1.36-.39h5.12a11.57,11.57,0,0,1-1.31-5.94,13.58,13.58,0,0,1,.66-4.47,8.16,8.16,0,0,1,1.84-3.08,7.35,7.35,0,0,1,2.74-1.77,9.9,9.9,0,0,1,3.42-.57,8.56,8.56,0,0,1,6.35,2.33c1.54,1.56,2.31,4.07,2.31,7.55a13.82,13.82,0,0,1-.61,4.4,7.4,7.4,0,0,1-1.72,2.92,6.63,6.63,0,0,1-2.72,1.63,11.61,11.61,0,0,1-3.61.52H442.77Zm8.07-23a.4.4,0,0,1-.45-.45v-3.31a.4.4,0,0,1,.45-.45h3.08a.4.4,0,0,1,.45.45v3.31a.4.4,0,0,1-.45.45Zm4.4,7.21a4.25,4.25,0,0,0-3.63,1.63,7.22,7.22,0,0,0-1.22,4.44c0,2.24.39,3.83,1.16,4.78a4.49,4.49,0,0,0,3.7,1.43,4.66,4.66,0,0,0,3.7-1.34c.77-.89,1.16-2.43,1.16-4.6A8.14,8.14,0,0,0,459,128,4.23,4.23,0,0,0,455.24,126.33Zm1.14-7.21a.4.4,0,0,1-.45-.45v-3.31a.4.4,0,0,1,.45-.45h3.08a.4.4,0,0,1,.45.45v3.31a.4.4,0,0,1-.45.45Z"/><path class="cls-2" d="M467.08,151.18a.4.4,0,0,1-.45-.45V148.1a.4.4,0,0,1,.45-.45h1c2.45,0,3.67-1.29,3.67-3.85V124.07a.4.4,0,0,1,.45-.45h2.9a.4.4,0,0,1,.45.45v11.47a2.62,2.62,0,0,0,1.11,2.31,5.15,5.15,0,0,0,3,.77h.5a2,2,0,0,1,1.36.39,1.63,1.63,0,0,1,.45,1.29c0,.79-.14,1.29-.43,1.52a2.22,2.22,0,0,1-1.38.34h-.95a4.57,4.57,0,0,1-3.63-1.45v3a7.67,7.67,0,0,1-1.86,5.58,7.26,7.26,0,0,1-5.44,1.9Z"/><path class="cls-2" d="M480.23,142.16a1.52,1.52,0,0,1-1.22-.39,2.16,2.16,0,0,1-.32-1.34A2.48,2.48,0,0,1,479,139a1.65,1.65,0,0,1,1.25-.34h5a2.16,2.16,0,0,1,1.36.36,1.6,1.6,0,0,1,.45,1.31,2,2,0,0,1-.43,1.5,2.09,2.09,0,0,1-1.38.36h-5Z"/><path class="cls-2" d="M485.26,142.16a1.52,1.52,0,0,1-1.22-.39,2.16,2.16,0,0,1-.32-1.34A2.48,2.48,0,0,1,484,139a1.65,1.65,0,0,1,1.25-.34h5a2.16,2.16,0,0,1,1.36.36,1.6,1.6,0,0,1,.45,1.31,2,2,0,0,1-.43,1.5,2.09,2.09,0,0,1-1.38.36h-5Z"/><path class="cls-2" d="M490.25,142.16a2.39,2.39,0,0,1-1.36-.32,1.46,1.46,0,0,1-.45-1.27,2.08,2.08,0,0,1,.43-1.54,2,2,0,0,1,1.38-.41h2.86a2.26,2.26,0,0,0,1.66-.52,2.63,2.63,0,0,0,.52-1.88V111.78a.4.4,0,0,1,.45-.45h2.9a.4.4,0,0,1,.45.45v24.67a6.43,6.43,0,0,1-1.22,4.33c-.81.92-2.18,1.38-4.08,1.38Z"/><path class="cls-2" d="M509.25,141.7a.4.4,0,0,1-.45.45h-2.9a.4.4,0,0,1-.45-.45V111.77a.4.4,0,0,1,.45-.45h2.9a.4.4,0,0,1,.45.45Z"/></g></g></svg>
